<?xml version="1.0" encoding="utf-8"?>
<!-- Generator: Adobe Illustrator 24.3.0, SVG Export Plug-In . SVG Version: 6.00 Build 0)  -->
<svg version="1.1" id="MAIN_GRAPHICS_copy_3" xmlns="http://www.w3.org/2000/svg" xmlns:xlink="http://www.w3.org/1999/xlink"
	 x="0px" y="0px" width="820px" height="582.186px" viewBox="0 0 820 582.186" style="enable-background:new 0 0 820 582.186;"
	 xml:space="preserve">
<style type="text/css">
	.st0{fill:#1CD0BB;}
	.st1{display:none;}
	.st2{display:inline;fill:none;stroke:url(#SVGID_1_);stroke-width:3;stroke-miterlimit:10;stroke-dasharray:3.8447,3.8447;}
	.st3{fill:none;stroke:url(#SVGID_2_);stroke-width:3;stroke-miterlimit:10;}
	.st4{fill:none;stroke:url(#SVGID_3_);stroke-width:3;stroke-miterlimit:10;stroke-dasharray:3.92,3.92;}
	.st5{fill:none;stroke:url(#SVGID_4_);stroke-width:3;stroke-miterlimit:10;}
	.st6{fill:url(#SVGID_5_);}
	.st7{fill:none;stroke:url(#SVGID_6_);stroke-width:3;stroke-miterlimit:10;}
	.st8{fill:none;stroke:url(#SVGID_7_);stroke-width:3;stroke-miterlimit:10;stroke-dasharray:3.8405,3.8405;}
	.st9{fill:none;stroke:url(#SVGID_8_);stroke-width:3;stroke-miterlimit:10;}
	.st10{fill:url(#SVGID_9_);}
	.st11{fill:none;stroke:url(#SVGID_10_);stroke-width:3;stroke-miterlimit:10;}
	.st12{fill:none;stroke:url(#SVGID_11_);stroke-width:3;stroke-miterlimit:10;stroke-dasharray:3.8737,3.8737;}
	.st13{fill:none;stroke:url(#SVGID_12_);stroke-width:3;stroke-miterlimit:10;}
	.st14{fill:url(#SVGID_13_);}
	.st15{fill:none;stroke:url(#SVGID_14_);stroke-width:3;stroke-miterlimit:10;}
	.st16{fill:none;stroke:url(#SVGID_15_);stroke-width:3;stroke-miterlimit:10;stroke-dasharray:3.8146,3.8146;}
	.st17{fill:none;stroke:url(#SVGID_16_);stroke-width:3;stroke-miterlimit:10;}
	.st18{fill:url(#SVGID_17_);}
	.st19{fill:none;stroke:url(#SVGID_18_);stroke-width:3;stroke-miterlimit:10;}
	.st20{fill:none;stroke:url(#SVGID_19_);stroke-width:3;stroke-miterlimit:10;stroke-dasharray:3.7622,3.7622;}
	.st21{fill:none;stroke:url(#SVGID_20_);stroke-width:3;stroke-miterlimit:10;}
	.st22{fill:url(#SVGID_21_);}
	.st23{display:inline;fill:none;stroke:url(#SVGID_22_);stroke-width:3;stroke-miterlimit:10;stroke-dasharray:3.8447,3.8447;}
	.st24{fill:#FFFFFF;}
	.st25{fill:#333333;}
	.st26{fill:url(#SVGID_23_);}
	.st27{fill:url(#SVGID_24_);}
	.st28{fill:url(#SVGID_25_);}
	.st29{fill:url(#SVGID_26_);}
	.st30{fill:url(#SVGID_27_);}
	.st31{fill:none;stroke:#333333;stroke-width:2;stroke-linejoin:round;stroke-miterlimit:10;}
	.st32{fill:none;stroke:url(#SVGID_28_);stroke-width:3;stroke-miterlimit:10;stroke-dasharray:3.8428,3.8428;}
	.st33{fill:url(#SVGID_29_);}
	.st34{fill:none;stroke:#333333;stroke-width:2.1617;stroke-linecap:round;stroke-linejoin:round;stroke-miterlimit:10;}
	.st35{fill:none;stroke:#333333;stroke-width:2.1617;stroke-linejoin:round;stroke-miterlimit:10;}
	.st36{fill:#363636;}
	.st37{fill:none;stroke:#363636;stroke-width:2;stroke-linejoin:round;stroke-miterlimit:10;}
	.st38{fill:none;stroke:#363636;stroke-width:1.8;stroke-linecap:square;stroke-linejoin:round;stroke-miterlimit:10;}
	.st39{fill:none;stroke:#333333;stroke-width:2;stroke-linecap:round;stroke-linejoin:round;stroke-miterlimit:10;}
	.st40{fill:#FFFFFF;stroke:#333333;stroke-width:2;stroke-miterlimit:10;}
</style>
<rect x="87.498" y="18.032" class="st0" width="637.114" height="43.443"/>
<g class="st1">
	<linearGradient id="SVGID_1_" gradientUnits="userSpaceOnUse" x1="110.0981" y1="479.1411" x2="714.9521" y2="129.9285">
		<stop  offset="0" style="stop-color:#17C9C0"/>
		<stop  offset="0.1678" style="stop-color:#00A9D7"/>
		<stop  offset="0.5644" style="stop-color:#1CD0BB"/>
		<stop  offset="1" style="stop-color:#0FBEC8"/>
	</linearGradient>
	<path class="st2" d="M705.052,455.893H119.998c-20.646,0-37.383-16.737-37.383-37.383V190.56c0-20.646,16.737-37.383,37.383-37.383
		h585.054c20.646,0,37.383,16.737,37.383,37.383v227.949C742.435,439.156,725.698,455.893,705.052,455.893z"/>
</g>
<g>
	<g>
		<linearGradient id="SVGID_2_" gradientUnits="userSpaceOnUse" x1="81.0738" y1="244.4506" x2="205.9632" y2="172.3457">
			<stop  offset="0" style="stop-color:#17C9C0"/>
			<stop  offset="0.1678" style="stop-color:#00A9D7"/>
			<stop  offset="0.5644" style="stop-color:#1CD0BB"/>
			<stop  offset="1" style="stop-color:#0FBEC8"/>
		</linearGradient>
		<line class="st3" x1="82.615" y1="244.522" x2="82.615" y2="242.6"/>
		<linearGradient id="SVGID_3_" gradientUnits="userSpaceOnUse" x1="63.6802" y1="214.3239" x2="188.5695" y2="142.219">
			<stop  offset="0" style="stop-color:#17C9C0"/>
			<stop  offset="0.1678" style="stop-color:#00A9D7"/>
			<stop  offset="0.5644" style="stop-color:#1CD0BB"/>
			<stop  offset="1" style="stop-color:#0FBEC8"/>
		</linearGradient>
		<path class="st4" d="M82.615,238.68v-48.12c0-20.646,16.737-37.383,37.383-37.383h63.692"/>
		<linearGradient id="SVGID_4_" gradientUnits="userSpaceOnUse" x1="67.9354" y1="221.6941" x2="192.8247" y2="149.5892">
			<stop  offset="0" style="stop-color:#17C9C0"/>
			<stop  offset="0.1678" style="stop-color:#00A9D7"/>
			<stop  offset="0.5644" style="stop-color:#1CD0BB"/>
			<stop  offset="1" style="stop-color:#0FBEC8"/>
		</linearGradient>
		<line class="st5" x1="185.65" y1="153.177" x2="187.571" y2="153.177"/>
		<g>
			<linearGradient id="SVGID_5_" gradientUnits="userSpaceOnUse" x1="67.8473" y1="221.5415" x2="192.7366" y2="149.4367">
				<stop  offset="0" style="stop-color:#17C9C0"/>
				<stop  offset="0.1678" style="stop-color:#00A9D7"/>
				<stop  offset="0.5644" style="stop-color:#1CD0BB"/>
				<stop  offset="1" style="stop-color:#0FBEC8"/>
			</linearGradient>
			<polygon class="st6" points="186.258,157.665 194.03,153.177 186.258,148.689 			"/>
		</g>
	</g>
</g>
<g>
	<g>
		<linearGradient id="SVGID_6_" gradientUnits="userSpaceOnUse" x1="195.8375" y1="627.6461" x2="494.693" y2="455.1018">
			<stop  offset="0" style="stop-color:#17C9C0"/>
			<stop  offset="0.1678" style="stop-color:#00A9D7"/>
			<stop  offset="0.5644" style="stop-color:#1CD0BB"/>
			<stop  offset="1" style="stop-color:#0FBEC8"/>
		</linearGradient>
		<line class="st7" x1="494.284" y1="455.893" x2="492.362" y2="455.893"/>
		<linearGradient id="SVGID_7_" gradientUnits="userSpaceOnUse" x1="130.7397" y1="514.8935" x2="429.5952" y2="342.3492">
			<stop  offset="0" style="stop-color:#17C9C0"/>
			<stop  offset="0.1678" style="stop-color:#00A9D7"/>
			<stop  offset="0.5644" style="stop-color:#1CD0BB"/>
			<stop  offset="1" style="stop-color:#0FBEC8"/>
		</linearGradient>
		<path class="st8" d="M488.522,455.893H119.998c-20.646,0-37.383-16.737-37.383-37.383v-24.03"/>
		<linearGradient id="SVGID_8_" gradientUnits="userSpaceOnUse" x1="65.3203" y1="401.5836" x2="364.1758" y2="229.0393">
			<stop  offset="0" style="stop-color:#17C9C0"/>
			<stop  offset="0.1678" style="stop-color:#00A9D7"/>
			<stop  offset="0.5644" style="stop-color:#1CD0BB"/>
			<stop  offset="1" style="stop-color:#0FBEC8"/>
		</linearGradient>
		<line class="st9" x1="82.615" y1="392.559" x2="82.615" y2="390.638"/>
		<g>
			<linearGradient id="SVGID_9_" gradientUnits="userSpaceOnUse" x1="64.3512" y1="399.9052" x2="363.2067" y2="227.3608">
				<stop  offset="0" style="stop-color:#17C9C0"/>
				<stop  offset="0.1678" style="stop-color:#00A9D7"/>
				<stop  offset="0.5644" style="stop-color:#1CD0BB"/>
				<stop  offset="1" style="stop-color:#0FBEC8"/>
			</linearGradient>
			<polygon class="st10" points="87.103,391.951 82.615,384.179 78.127,391.951 			"/>
		</g>
	</g>
</g>
<g>
	<g>
		<linearGradient id="SVGID_10_" gradientUnits="userSpaceOnUse" x1="531.3772" y1="494.0349" x2="743.9764" y2="371.2907">
			<stop  offset="0" style="stop-color:#17C9C0"/>
			<stop  offset="0.1678" style="stop-color:#00A9D7"/>
			<stop  offset="0.5644" style="stop-color:#1CD0BB"/>
			<stop  offset="1" style="stop-color:#0FBEC8"/>
		</linearGradient>
		<line class="st11" x1="742.435" y1="371.22" x2="742.435" y2="373.141"/>
		<linearGradient id="SVGID_11_" gradientUnits="userSpaceOnUse" x1="536.5197" y1="502.9418" x2="749.1188" y2="380.1977">
			<stop  offset="0" style="stop-color:#17C9C0"/>
			<stop  offset="0.1678" style="stop-color:#00A9D7"/>
			<stop  offset="0.5644" style="stop-color:#1CD0BB"/>
			<stop  offset="1" style="stop-color:#0FBEC8"/>
		</linearGradient>
		<path class="st12" d="M742.435,377.015v41.495c0,20.646-16.737,37.383-37.383,37.383H520.539"/>
		<linearGradient id="SVGID_12_" gradientUnits="userSpaceOnUse" x1="511.4272" y1="459.4805" x2="724.0264" y2="336.7363">
			<stop  offset="0" style="stop-color:#17C9C0"/>
			<stop  offset="0.1678" style="stop-color:#00A9D7"/>
			<stop  offset="0.5644" style="stop-color:#1CD0BB"/>
			<stop  offset="1" style="stop-color:#0FBEC8"/>
		</linearGradient>
		<line class="st13" x1="518.602" y1="455.893" x2="516.68" y2="455.893"/>
		<g>
			<linearGradient id="SVGID_13_" gradientUnits="userSpaceOnUse" x1="511.5153" y1="459.6331" x2="724.1144" y2="336.8889">
				<stop  offset="0" style="stop-color:#17C9C0"/>
				<stop  offset="0.1678" style="stop-color:#00A9D7"/>
				<stop  offset="0.5644" style="stop-color:#1CD0BB"/>
				<stop  offset="1" style="stop-color:#0FBEC8"/>
			</linearGradient>
			<polygon class="st14" points="517.994,451.405 510.222,455.893 517.994,460.381 			"/>
		</g>
	</g>
</g>
<g>
	<g>
		<linearGradient id="SVGID_14_" gradientUnits="userSpaceOnUse" x1="427.0336" y1="153.9679" x2="653.3818" y2="23.2857">
			<stop  offset="0" style="stop-color:#17C9C0"/>
			<stop  offset="0.1678" style="stop-color:#00A9D7"/>
			<stop  offset="0.5644" style="stop-color:#1CD0BB"/>
			<stop  offset="1" style="stop-color:#0FBEC8"/>
		</linearGradient>
		<line class="st15" x1="427.443" y1="153.177" x2="429.364" y2="153.177"/>
		<linearGradient id="SVGID_15_" gradientUnits="userSpaceOnUse" x1="482.1414" y1="249.4174" x2="708.4896" y2="118.7352">
			<stop  offset="0" style="stop-color:#17C9C0"/>
			<stop  offset="0.1678" style="stop-color:#00A9D7"/>
			<stop  offset="0.5644" style="stop-color:#1CD0BB"/>
			<stop  offset="1" style="stop-color:#0FBEC8"/>
		</linearGradient>
		<path class="st16" d="M433.179,153.177h106.995h164.878c20.646,0,37.383,16.737,37.383,37.383v33.719"/>
		<linearGradient id="SVGID_16_" gradientUnits="userSpaceOnUse" x1="537.5717" y1="345.4255" x2="763.9199" y2="214.7433">
			<stop  offset="0" style="stop-color:#17C9C0"/>
			<stop  offset="0.1678" style="stop-color:#00A9D7"/>
			<stop  offset="0.5644" style="stop-color:#1CD0BB"/>
			<stop  offset="1" style="stop-color:#0FBEC8"/>
		</linearGradient>
		<line class="st17" x1="742.435" y1="226.187" x2="742.435" y2="228.108"/>
		<g>
			<linearGradient id="SVGID_17_" gradientUnits="userSpaceOnUse" x1="538.5408" y1="347.104" x2="764.889" y2="216.4218">
				<stop  offset="0" style="stop-color:#17C9C0"/>
				<stop  offset="0.1678" style="stop-color:#00A9D7"/>
				<stop  offset="0.5644" style="stop-color:#1CD0BB"/>
				<stop  offset="1" style="stop-color:#0FBEC8"/>
			</linearGradient>
			<polygon class="st18" points="737.948,226.795 742.435,234.567 746.923,226.795 			"/>
		</g>
	</g>
</g>
<g>
	<g>
		<linearGradient id="SVGID_18_" gradientUnits="userSpaceOnUse" x1="221.5232" y1="153.9679" x2="357.521" y2="75.4495">
			<stop  offset="0" style="stop-color:#17C9C0"/>
			<stop  offset="0.1678" style="stop-color:#00A9D7"/>
			<stop  offset="0.5644" style="stop-color:#1CD0BB"/>
			<stop  offset="1" style="stop-color:#0FBEC8"/>
		</linearGradient>
		<line class="st19" x1="221.933" y1="153.177" x2="223.854" y2="153.177"/>
		<linearGradient id="SVGID_19_" gradientUnits="userSpaceOnUse" x1="243.1606" y1="191.445" x2="379.1584" y2="112.9267">
			<stop  offset="0" style="stop-color:#17C9C0"/>
			<stop  offset="0.1678" style="stop-color:#00A9D7"/>
			<stop  offset="0.5644" style="stop-color:#1CD0BB"/>
			<stop  offset="1" style="stop-color:#0FBEC8"/>
		</linearGradient>
		<polyline class="st20" points="227.616,153.177 345.664,153.177 391.27,153.177 		"/>
		<linearGradient id="SVGID_20_" gradientUnits="userSpaceOnUse" x1="264.3278" y1="228.1076" x2="400.3256" y2="149.5892">
			<stop  offset="0" style="stop-color:#17C9C0"/>
			<stop  offset="0.1678" style="stop-color:#00A9D7"/>
			<stop  offset="0.5644" style="stop-color:#1CD0BB"/>
			<stop  offset="1" style="stop-color:#0FBEC8"/>
		</linearGradient>
		<line class="st21" x1="393.151" y1="153.177" x2="395.072" y2="153.177"/>
		<g>
			<linearGradient id="SVGID_21_" gradientUnits="userSpaceOnUse" x1="264.2397" y1="227.955" x2="400.2375" y2="149.4367">
				<stop  offset="0" style="stop-color:#17C9C0"/>
				<stop  offset="0.1678" style="stop-color:#00A9D7"/>
				<stop  offset="0.5644" style="stop-color:#1CD0BB"/>
				<stop  offset="1" style="stop-color:#0FBEC8"/>
			</linearGradient>
			<polygon class="st22" points="393.759,157.665 401.531,153.177 393.759,148.689 			"/>
		</g>
	</g>
</g>
<g class="st1">
	<linearGradient id="SVGID_22_" gradientUnits="userSpaceOnUse" x1="110.0981" y1="479.1411" x2="714.9521" y2="129.9285">
		<stop  offset="0" style="stop-color:#17C9C0"/>
		<stop  offset="0.1678" style="stop-color:#00A9D7"/>
		<stop  offset="0.5644" style="stop-color:#1CD0BB"/>
		<stop  offset="1" style="stop-color:#0FBEC8"/>
	</linearGradient>
	<path class="st23" d="M705.052,455.893H119.998c-20.646,0-37.383-16.737-37.383-37.383V190.56
		c0-20.646,16.737-37.383,37.383-37.383h585.054c20.646,0,37.383,16.737,37.383,37.383v227.949
		C742.435,439.156,725.698,455.893,705.052,455.893z"/>
</g>
<circle class="st24" cx="272.714" cy="157.66" r="61.998"/>
<circle class="st24" cx="82.486" cy="308.393" r="61.998"/>
<g>
	<g>
		<path class="st25" d="M104.773,39.048v-0.031c0-3.104,2.339-5.645,5.692-5.645c2.059,0,3.291,0.686,4.304,1.684l-1.528,1.762
			c-0.842-0.764-1.7-1.232-2.792-1.232c-1.84,0-3.166,1.528-3.166,3.399v0.031c0,1.871,1.294,3.431,3.166,3.431
			c1.248,0,2.012-0.499,2.869-1.279l1.528,1.544c-1.123,1.201-2.37,1.949-4.476,1.949C107.159,44.662,104.773,42.182,104.773,39.048
			z"/>
		<path class="st25" d="M116.208,39.048v-0.031c0-3.104,2.448-5.645,5.816-5.645c3.369,0,5.786,2.51,5.786,5.614v0.031
			c0,3.103-2.448,5.645-5.816,5.645C118.625,44.662,116.208,42.151,116.208,39.048z M125.3,39.048v-0.031
			c0-1.872-1.372-3.431-3.306-3.431c-1.934,0-3.275,1.528-3.275,3.399v0.031c0,1.871,1.372,3.431,3.306,3.431
			C123.959,42.448,125.3,40.919,125.3,39.048z"/>
		<path class="st25" d="M129.875,33.559h2.214l5.115,6.721v-6.721h2.371v10.916h-2.043l-5.287-6.939v6.939h-2.37V33.559z"/>
		<path class="st25" d="M144.664,35.773h-3.322v-2.214h9.045v2.214h-3.322v8.702h-2.401V35.773z"/>
		<path class="st25" d="M152.262,33.559h2.402v10.916h-2.402V33.559z"/>
		<path class="st25" d="M157.316,33.559h2.214l5.115,6.721v-6.721h2.371v10.916h-2.043l-5.287-6.939v6.939h-2.37V33.559z"/>
		<path class="st25" d="M169.392,39.797v-6.238h2.402v6.175c0,1.778,0.889,2.698,2.354,2.698c1.466,0,2.355-0.889,2.355-2.62v-6.253
			h2.401v6.16c0,3.306-1.855,4.928-4.787,4.928C171.185,44.646,169.392,43.009,169.392,39.797z"/>
		<path class="st25" d="M180.796,39.048v-0.031c0-3.104,2.448-5.645,5.816-5.645c3.369,0,5.786,2.51,5.786,5.614v0.031
			c0,3.103-2.448,5.645-5.816,5.645C183.213,44.662,180.796,42.151,180.796,39.048z M189.888,39.048v-0.031
			c0-1.872-1.372-3.431-3.306-3.431c-1.934,0-3.275,1.528-3.275,3.399v0.031c0,1.871,1.372,3.431,3.306,3.431
			C188.547,42.448,189.888,40.919,189.888,39.048z"/>
		<path class="st25" d="M194.291,39.797v-6.238h2.402v6.175c0,1.778,0.889,2.698,2.354,2.698s2.355-0.889,2.355-2.62v-6.253h2.401
			v6.16c0,3.306-1.855,4.928-4.788,4.928C196.084,44.646,194.291,43.009,194.291,39.797z"/>
		<path class="st25" d="M205.43,42.884l1.419-1.7c0.982,0.811,2.012,1.326,3.259,1.326c0.982,0,1.575-0.39,1.575-1.029V41.45
			c0-0.608-0.375-0.92-2.199-1.388c-2.199-0.562-3.618-1.17-3.618-3.337v-0.031c0-1.98,1.591-3.291,3.821-3.291
			c1.59,0,2.947,0.499,4.054,1.388l-1.248,1.809c-0.967-0.671-1.918-1.076-2.838-1.076s-1.404,0.421-1.404,0.951v0.031
			c0,0.717,0.468,0.951,2.355,1.435c2.214,0.577,3.462,1.373,3.462,3.275v0.031c0,2.167-1.653,3.384-4.008,3.384
			C208.409,44.631,206.74,44.054,205.43,42.884z"/>
		<path class="st25" d="M220.796,33.559h2.402v10.916h-2.402V33.559z"/>
		<path class="st25" d="M225.851,33.559h2.214l5.115,6.721v-6.721h2.371v10.916h-2.043l-5.287-6.939v6.939h-2.37V33.559z"/>
		<path class="st25" d="M240.64,35.773h-3.322v-2.214h9.045v2.214h-3.322v8.702h-2.401V35.773z"/>
		<path class="st25" d="M248.129,33.559h8.234v2.136h-5.848v2.214h5.146v2.137h-5.146v2.292h5.926v2.136h-8.312V33.559z"/>
		<path class="st25" d="M258.504,33.559h2.401v8.733h5.442v2.183h-7.844V33.559z"/>
		<path class="st25" d="M268.083,33.559h2.401v8.733h5.442v2.183h-7.844V33.559z"/>
		<path class="st25" d="M277.77,33.559h2.402v10.916h-2.402V33.559z"/>
		<path class="st25" d="M282.342,39.048v-0.031c0-3.104,2.417-5.645,5.723-5.645c1.965,0,3.15,0.53,4.289,1.497l-1.513,1.824
			c-0.842-0.702-1.591-1.107-2.854-1.107c-1.747,0-3.134,1.543-3.134,3.399v0.031c0,1.996,1.372,3.462,3.306,3.462
			c0.874,0,1.653-0.218,2.261-0.655v-1.56h-2.417V38.19h4.741v4.741c-1.123,0.951-2.667,1.731-4.663,1.731
			C284.681,44.662,282.342,42.276,282.342,39.048z"/>
		<path class="st25" d="M294.978,33.559h8.234v2.136h-5.848v2.214h5.146v2.137h-5.146v2.292h5.926v2.136h-8.312V33.559z"/>
		<path class="st25" d="M305.353,33.559h2.214l5.115,6.721v-6.721h2.371v10.916h-2.043l-5.287-6.939v6.939h-2.37V33.559z"/>
		<path class="st25" d="M317.116,39.048v-0.031c0-3.104,2.339-5.645,5.692-5.645c2.059,0,3.291,0.686,4.304,1.684l-1.528,1.762
			c-0.842-0.764-1.7-1.232-2.792-1.232c-1.84,0-3.166,1.528-3.166,3.399v0.031c0,1.871,1.294,3.431,3.166,3.431
			c1.248,0,2.012-0.499,2.869-1.279l1.528,1.544c-1.123,1.201-2.37,1.949-4.476,1.949C319.501,44.662,317.116,42.182,317.116,39.048
			z"/>
		<path class="st25" d="M329.035,33.559h8.234v2.136h-5.848v2.214h5.146v2.137h-5.146v2.292h5.926v2.136h-8.312V33.559z"/>
		<path class="st25" d="M344.011,33.559h4.46c2.604,0,4.179,1.544,4.179,3.774v0.031c0,2.526-1.965,3.836-4.413,3.836h-1.825v3.275
			h-2.401V33.559z M348.315,39.064c1.201,0,1.902-0.717,1.902-1.653v-0.031c0-1.076-0.749-1.653-1.949-1.653h-1.856v3.337H348.315z"
			/>
		<path class="st25" d="M354.354,33.559h2.401v8.733h5.442v2.183h-7.844V33.559z"/>
		<path class="st25" d="M367.676,33.481h2.214l4.678,10.994h-2.511l-0.998-2.448h-4.616l-0.998,2.448h-2.448L367.676,33.481z
			 M370.203,39.906l-1.451-3.54l-1.45,3.54H370.203z"/>
		<path class="st25" d="M378.722,35.773H375.4v-2.214h9.045v2.214h-3.322v8.702h-2.401V35.773z"/>
		<path class="st25" d="M386.211,33.559h8.312v2.183h-5.91v2.324h5.208v2.183h-5.208v4.226h-2.401V33.559z"/>
		<path class="st25" d="M395.884,39.048v-0.031c0-3.104,2.448-5.645,5.816-5.645c3.369,0,5.786,2.51,5.786,5.614v0.031
			c0,3.103-2.448,5.645-5.817,5.645C398.301,44.662,395.884,42.151,395.884,39.048z M404.975,39.048v-0.031
			c0-1.872-1.372-3.431-3.306-3.431c-1.934,0-3.274,1.528-3.274,3.399v0.031c0,1.871,1.372,3.431,3.306,3.431
			C403.634,42.448,404.975,40.919,404.975,39.048z"/>
		<path class="st25" d="M409.55,33.559h4.99c1.388,0,2.464,0.39,3.182,1.107c0.608,0.608,0.936,1.466,0.936,2.495v0.031
			c0,1.762-0.951,2.87-2.339,3.384l2.666,3.898h-2.807l-2.339-3.493h-1.888v3.493h-2.401V33.559z M414.384,38.861
			c1.17,0,1.841-0.624,1.841-1.544v-0.031c0-1.029-0.718-1.56-1.887-1.56h-2.387v3.135H414.384z"/>
		<path class="st25" d="M420.751,33.559h2.589l2.869,4.616l2.87-4.616h2.588v10.916h-2.386v-7.126l-3.072,4.663h-0.062l-3.041-4.616
			v7.08h-2.354V33.559z"/>
		<path class="st25" d="M438.816,33.559h8.312v2.183h-5.91v2.324h5.208v2.183h-5.208v4.226h-2.402V33.559z"/>
		<path class="st25" d="M448.489,39.048v-0.031c0-3.104,2.448-5.645,5.817-5.645c3.368,0,5.785,2.51,5.785,5.614v0.031
			c0,3.103-2.448,5.645-5.816,5.645S448.489,42.151,448.489,39.048z M457.581,39.048v-0.031c0-1.872-1.372-3.431-3.306-3.431
			S451,37.114,451,38.986v0.031c0,1.871,1.373,3.431,3.307,3.431S457.581,40.919,457.581,39.048z"/>
		<path class="st25" d="M462.155,33.559h4.99c1.389,0,2.464,0.39,3.182,1.107c0.608,0.608,0.936,1.466,0.936,2.495v0.031
			c0,1.762-0.951,2.87-2.339,3.384l2.666,3.898h-2.807l-2.339-3.493h-1.887v3.493h-2.402V33.559z M466.99,38.861
			c1.169,0,1.84-0.624,1.84-1.544v-0.031c0-1.029-0.718-1.56-1.887-1.56h-2.386v3.135H466.99z"/>
		<path class="st25" d="M477.476,39.048v-0.031c0-3.104,2.448-5.645,5.817-5.645c3.368,0,5.785,2.51,5.785,5.614v0.031
			c0,3.103-2.448,5.645-5.816,5.645S477.476,42.151,477.476,39.048z M486.567,39.048v-0.031c0-1.872-1.372-3.431-3.306-3.431
			s-3.275,1.528-3.275,3.399v0.031c0,1.871,1.373,3.431,3.307,3.431S486.567,40.919,486.567,39.048z"/>
		<path class="st25" d="M491.142,33.559h4.46c2.604,0,4.18,1.544,4.18,3.774v0.031c0,2.526-1.965,3.836-4.413,3.836h-1.824v3.275
			h-2.402V33.559z M495.446,39.064c1.2,0,1.902-0.717,1.902-1.653v-0.031c0-1.076-0.749-1.653-1.949-1.653h-1.855v3.337H495.446z"/>
		<path class="st25" d="M501.485,33.559h8.234v2.136h-5.848v2.214h5.146v2.137h-5.146v2.292h5.926v2.136h-8.312V33.559z"/>
		<path class="st25" d="M511.859,33.559h4.99c1.389,0,2.464,0.39,3.182,1.107c0.608,0.608,0.936,1.466,0.936,2.495v0.031
			c0,1.762-0.951,2.87-2.339,3.384l2.666,3.898h-2.807l-2.339-3.493h-1.887v3.493h-2.402V33.559z M516.694,38.861
			c1.169,0,1.84-0.624,1.84-1.544v-0.031c0-1.029-0.718-1.56-1.887-1.56h-2.386v3.135H516.694z"/>
		<path class="st25" d="M526.804,33.481h2.214l4.679,10.994h-2.511l-0.998-2.448h-4.616l-0.998,2.448h-2.448L526.804,33.481z
			 M529.33,39.906l-1.45-3.54l-1.45,3.54H529.33z"/>
		<path class="st25" d="M537.849,35.773h-3.321v-2.214h9.045v2.214h-3.322v8.702h-2.401V35.773z"/>
		<path class="st25" d="M545.448,33.559h2.401v10.916h-2.401V33.559z"/>
		<path class="st25" d="M550.02,39.048v-0.031c0-3.104,2.448-5.645,5.817-5.645c3.368,0,5.785,2.51,5.785,5.614v0.031
			c0,3.103-2.448,5.645-5.816,5.645C552.437,44.662,550.02,42.151,550.02,39.048z M559.111,39.048v-0.031
			c0-1.872-1.372-3.431-3.306-3.431s-3.275,1.528-3.275,3.399v0.031c0,1.871,1.373,3.431,3.307,3.431S559.111,40.919,559.111,39.048
			z"/>
		<path class="st25" d="M563.686,33.559h2.215l5.115,6.721v-6.721h2.37v10.916h-2.043l-5.286-6.939v6.939h-2.371V33.559z"/>
		<path class="st25" d="M579.675,33.481h2.214l4.679,10.994h-2.511l-0.998-2.448h-4.616l-0.998,2.448h-2.448L579.675,33.481z
			 M582.201,39.906l-1.45-3.54l-1.45,3.54H582.201z"/>
		<path class="st25" d="M588.178,33.559h2.402v8.733h5.442v2.183h-7.845V33.559z"/>
		<path class="st25" d="M602.358,33.559h8.234v2.136h-5.848v2.214h5.146v2.137h-5.146v2.292h5.926v2.136h-8.312V33.559z"/>
		<path class="st25" d="M622.198,33.559l-3.648,5.333l3.805,5.583h-2.807l-2.448-3.743l-2.464,3.743h-2.729l3.805-5.552
			l-3.648-5.364h2.807l2.277,3.54l2.323-3.54H622.198z"/>
		<path class="st25" d="M623.592,39.048v-0.031c0-3.104,2.34-5.645,5.692-5.645c2.059,0,3.29,0.686,4.304,1.684l-1.528,1.762
			c-0.842-0.764-1.699-1.232-2.791-1.232c-1.84,0-3.166,1.528-3.166,3.399v0.031c0,1.871,1.295,3.431,3.166,3.431
			c1.247,0,2.012-0.499,2.869-1.279l1.528,1.544c-1.123,1.201-2.37,1.949-4.476,1.949C625.979,44.662,623.592,42.182,623.592,39.048
			z"/>
		<path class="st25" d="M635.511,33.559h8.234v2.136h-5.848v2.214h5.146v2.137h-5.146v2.292h5.926v2.136h-8.312V33.559z"/>
		<path class="st25" d="M645.885,33.559h2.402v8.733h5.442v2.183h-7.845V33.559z"/>
		<path class="st25" d="M655.464,33.559h2.402v8.733h5.442v2.183h-7.845V33.559z"/>
		<path class="st25" d="M665.043,33.559h8.234v2.136h-5.848v2.214h5.146v2.137h-5.146v2.292h5.926v2.136h-8.312V33.559z"/>
		<path class="st25" d="M675.417,33.559h2.215l5.115,6.721v-6.721h2.37v10.916h-2.043l-5.286-6.939v6.939h-2.371V33.559z"/>
		<path class="st25" d="M687.18,39.048v-0.031c0-3.104,2.34-5.645,5.692-5.645c2.059,0,3.29,0.686,4.304,1.684l-1.528,1.762
			c-0.842-0.764-1.699-1.232-2.791-1.232c-1.84,0-3.166,1.528-3.166,3.399v0.031c0,1.871,1.295,3.431,3.166,3.431
			c1.247,0,2.012-0.499,2.869-1.279l1.528,1.544c-1.123,1.201-2.37,1.949-4.476,1.949C689.566,44.662,687.18,42.182,687.18,39.048z"
			/>
		<path class="st25" d="M699.099,33.559h8.234v2.136h-5.848v2.214h5.146v2.137h-5.146v2.292h5.926v2.136h-8.312V33.559z"/>
	</g>
</g>
<g>
	<g>
		<path class="st25" d="M207.473,241.539v-5.2h2.002v5.148c0,1.482,0.741,2.249,1.963,2.249c1.222,0,1.963-0.741,1.963-2.184v-5.213
			h2.002v5.135c0,2.756-1.547,4.108-3.991,4.108S207.473,244.217,207.473,241.539z"/>
		<path class="st25" d="M217.379,236.339h3.718c2.171,0,3.484,1.287,3.484,3.146v0.026c0,2.106-1.638,3.198-3.679,3.198h-1.521v2.73
			h-2.002V236.339z M220.967,240.928c1.001,0,1.586-0.598,1.586-1.378v-0.026c0-0.897-0.624-1.378-1.625-1.378h-1.547v2.782H220.967
			z"/>
		<path class="st25" d="M225.997,236.339h3.549c2.86,0,4.836,1.963,4.836,4.524v0.026c0,2.561-1.976,4.55-4.836,4.55h-3.549V236.339
			z M228,238.146v5.486h1.547c1.638,0,2.743-1.105,2.743-2.717v-0.026c0-1.612-1.105-2.743-2.743-2.743H228z"/>
		<path class="st25" d="M239.219,236.274h1.846l3.9,9.166h-2.093l-0.832-2.041h-3.848l-0.832,2.041h-2.041L239.219,236.274z
			 M241.325,241.63l-1.209-2.951l-1.209,2.951H241.325z"/>
		<path class="st25" d="M248.422,238.185h-2.769v-1.846h7.541v1.846h-2.769v7.254h-2.002V238.185z"/>
		<path class="st25" d="M254.662,236.339h6.864v1.781h-4.875v1.846h4.29v1.781h-4.29v1.911h4.94v1.781h-6.93V236.339z"/>
		<path class="st25" d="M270.262,236.274h1.846l3.9,9.166h-2.093l-0.832-2.041h-3.848l-0.832,2.041h-2.041L270.262,236.274z
			 M272.368,241.63l-1.209-2.951l-1.209,2.951H272.368z"/>
		<path class="st25" d="M277.438,236.339h2.002v9.1h-2.002V236.339z"/>
		<path class="st25" d="M281.208,240.46h4.004v1.898h-4.004V240.46z"/>
		<path class="st25" d="M286.889,236.339h2.158l2.392,3.848l2.392-3.848h2.158v9.1H294v-5.941l-2.561,3.887h-0.052l-2.535-3.848
			v5.902h-1.963V236.339z"/>
		<path class="st25" d="M297.705,240.915v-0.026c0-2.587,2.041-4.706,4.849-4.706s4.823,2.093,4.823,4.68v0.026
			c0,2.587-2.041,4.706-4.849,4.706S297.705,243.502,297.705,240.915z M305.284,240.915v-0.026c0-1.56-1.145-2.86-2.756-2.86
			s-2.73,1.274-2.73,2.834v0.026c0,1.56,1.144,2.86,2.756,2.86C304.166,243.749,305.284,242.475,305.284,240.915z"/>
		<path class="st25" d="M309.093,236.339h3.549c2.86,0,4.836,1.963,4.836,4.524v0.026c0,2.561-1.976,4.55-4.836,4.55h-3.549V236.339
			z M311.095,238.146v5.486h1.547c1.638,0,2.743-1.105,2.743-2.717v-0.026c0-1.612-1.105-2.743-2.743-2.743H311.095z"/>
		<path class="st25" d="M319.193,236.339h6.864v1.781h-4.875v1.846h4.29v1.781h-4.29v1.911h4.94v1.781h-6.93V236.339z"/>
		<path class="st25" d="M327.839,236.339h2.002v7.28h4.537v1.82h-6.539V236.339z"/>
		<path class="st25" d="M335.196,244.113l1.183-1.417c0.819,0.676,1.677,1.105,2.717,1.105c0.819,0,1.313-0.325,1.313-0.858v-0.026
			c0-0.507-0.312-0.767-1.833-1.157c-1.833-0.468-3.016-0.975-3.016-2.782v-0.026c0-1.651,1.326-2.743,3.185-2.743
			c1.326,0,2.457,0.416,3.38,1.157l-1.04,1.508c-0.806-0.559-1.599-0.897-2.366-0.897s-1.17,0.351-1.17,0.793v0.026
			c0,0.598,0.39,0.793,1.963,1.196c1.846,0.481,2.886,1.144,2.886,2.73v0.026c0,1.807-1.378,2.821-3.341,2.821
			C337.68,245.569,336.289,245.088,335.196,244.113z"/>
	</g>
</g>
<linearGradient id="SVGID_23_" gradientUnits="userSpaceOnUse" x1="213.6422" y1="191.582" x2="332.5302" y2="122.9419">
	<stop  offset="0" style="stop-color:#00B4E5"/>
	<stop  offset="1" style="stop-color:#1CD0BB"/>
</linearGradient>
<path class="st26" d="M273.086,225.915c-37.856,0-68.653-30.797-68.653-68.653s30.797-68.654,68.653-68.654
	s68.653,30.798,68.653,68.654S310.942,225.915,273.086,225.915z M273.086,99.706c-31.737,0-57.556,25.82-57.556,57.556
	s25.819,57.556,57.556,57.556c31.736,0,57.556-25.819,57.556-57.556S304.822,99.706,273.086,99.706z"/>
<circle class="st24" cx="481.217" cy="157.66" r="61.998"/>
<linearGradient id="SVGID_24_" gradientUnits="userSpaceOnUse" x1="422.1454" y1="191.582" x2="541.0334" y2="122.9419">
	<stop  offset="0" style="stop-color:#00B4E5"/>
	<stop  offset="1" style="stop-color:#1CD0BB"/>
</linearGradient>
<path class="st27" d="M481.59,225.915c-37.856,0-68.653-30.797-68.653-68.653s30.797-68.654,68.653-68.654
	s68.653,30.798,68.653,68.654S519.445,225.915,481.59,225.915z M481.59,99.706c-31.737,0-57.556,25.82-57.556,57.556
	s25.819,57.556,57.556,57.556c31.736,0,57.556-25.819,57.556-57.556S513.326,99.706,481.59,99.706z"/>
<circle class="st24" cx="743.014" cy="310.297" r="61.998"/>
<linearGradient id="SVGID_25_" gradientUnits="userSpaceOnUse" x1="683.5698" y1="344.2183" x2="802.4578" y2="275.5783">
	<stop  offset="0" style="stop-color:#00B4E5"/>
	<stop  offset="1" style="stop-color:#1CD0BB"/>
</linearGradient>
<path class="st28" d="M743.014,378.552c-37.856,0-68.653-30.797-68.653-68.653s30.797-68.654,68.653-68.654
	s68.653,30.798,68.653,68.654S780.87,378.552,743.014,378.552z M743.014,252.342c-31.737,0-57.556,25.82-57.556,57.556
	s25.819,57.556,57.556,57.556c31.736,0,57.556-25.819,57.556-57.556S774.75,252.342,743.014,252.342z"/>
<circle class="st24" cx="432.511" cy="451.905" r="61.998"/>
<linearGradient id="SVGID_26_" gradientUnits="userSpaceOnUse" x1="373.0674" y1="485.8261" x2="491.9554" y2="417.1861">
	<stop  offset="0" style="stop-color:#00B4E5"/>
	<stop  offset="1" style="stop-color:#1CD0BB"/>
</linearGradient>
<path class="st29" d="M432.511,520.16c-37.856,0-68.653-30.797-68.653-68.653s30.797-68.654,68.653-68.654
	s68.653,30.798,68.653,68.654S470.367,520.16,432.511,520.16z M432.511,393.95c-31.737,0-57.556,25.82-57.556,57.556
	s25.819,57.556,57.556,57.556c31.736,0,57.556-25.819,57.556-57.556S464.247,393.95,432.511,393.95z"/>
<linearGradient id="SVGID_27_" gradientUnits="userSpaceOnUse" x1="23.4141" y1="341.2073" x2="142.3024" y2="272.5671">
	<stop  offset="0" style="stop-color:#00B4E5"/>
	<stop  offset="1" style="stop-color:#1CD0BB"/>
</linearGradient>
<path class="st30" d="M82.858,375.541c-37.856,0-68.653-30.798-68.653-68.654s30.797-68.653,68.653-68.653
	s68.654,30.798,68.654,68.653S120.714,375.541,82.858,375.541z M82.858,249.331c-31.737,0-57.556,25.819-57.556,57.556
	s25.819,57.556,57.556,57.556s57.556-25.82,57.556-57.556S114.595,249.331,82.858,249.331z"/>
<g>
	<rect x="435.201" y="471.472" class="st31" width="8.354" height="8.077"/>
	<rect x="420.052" y="471.472" class="st31" width="8.354" height="8.077"/>
	<rect x="451.148" y="471.472" class="st31" width="8.354" height="8.077"/>
	<g>
		<path class="st25" d="M412.36,437.103v47.849h-10.742v-47.849H412.36 M414.36,435.103h-14.742v51.849h14.742V435.103
			L414.36,435.103z"/>
	</g>
	<polygon class="st31" points="465.405,485.777 413.378,485.777 413.378,465.136 427.973,457.364 427.973,465.136 465.405,465.136 	
		"/>
	<g>
		<g>
			<path class="st25" d="M458.615,443.557l1.89,20.683h-10.359l1.89-20.683H458.615 M460.44,441.557h-10.231l-2.255,24.683h14.742
				L460.44,441.557L460.44,441.557z"/>
		</g>
		<g>
			<path class="st25" d="M442.668,443.557l1.89,20.683h-10.359l1.89-20.683H442.668 M444.494,441.557h-10.231l-2.255,24.683h14.742
				L444.494,441.557L444.494,441.557z"/>
		</g>
		<g>
			<line class="st31" x1="433.888" y1="457.614" x2="444.289" y2="457.614"/>
		</g>
		<g>
			<line class="st31" x1="434.227" y1="450.279" x2="444.529" y2="450.279"/>
		</g>
		<g>
			<line class="st31" x1="449.851" y1="457.614" x2="460.235" y2="457.614"/>
		</g>
		<g>
			<line class="st31" x1="450.174" y1="450.279" x2="460.475" y2="450.279"/>
		</g>
	</g>
	<g>
		<g>
			<path class="st25" d="M449.479,413.16c0.316,0.071,0.628,0.154,0.936,0.249l-0.033,2.024c-0.012,0.726,0.371,1.402,1,1.765
				c0.31,0.179,0.655,0.268,1,0.268c0.356,0,0.712-0.095,1.029-0.285l1.735-1.04c0.237,0.219,0.466,0.448,0.685,0.685l-1.04,1.735
				c-0.374,0.623-0.38,1.399-0.017,2.029c0.358,0.619,1.018,1,1.732,1c0.011,0,0.022,0,0.033,0l2.024-0.034
				c0.095,0.308,0.179,0.621,0.249,0.936l-1.768,0.982c-0.635,0.353-1.029,1.022-1.029,1.748c0,0.726,0.394,1.396,1.029,1.748
				l1.768,0.982c-0.071,0.316-0.154,0.628-0.249,0.936l-2.024-0.034c-0.011,0-0.022,0-0.033,0c-0.714,0-1.374,0.381-1.732,1
				c-0.363,0.629-0.357,1.406,0.017,2.029l1.04,1.735c-0.219,0.237-0.448,0.466-0.685,0.685l-1.735-1.04
				c-0.316-0.19-0.672-0.285-1.029-0.285c-0.345,0-0.69,0.089-1,0.268c-0.629,0.363-1.012,1.039-1,1.765l0.033,2.024
				c-0.308,0.095-0.621,0.179-0.936,0.249l-0.982-1.768c-0.353-0.635-1.022-1.029-1.748-1.029s-1.396,0.394-1.748,1.029
				l-0.982,1.768c-0.316-0.071-0.628-0.154-0.936-0.249l0.033-2.024c0.012-0.726-0.371-1.402-1-1.765
				c-0.31-0.179-0.655-0.268-1-0.268c-0.356,0-0.712,0.095-1.029,0.285l-1.735,1.04c-0.237-0.219-0.466-0.448-0.685-0.685
				l1.04-1.735c0.374-0.623,0.38-1.399,0.017-2.029c-0.358-0.619-1.018-1-1.732-1c-0.011,0-0.022,0-0.033,0l-2.024,0.034
				c-0.095-0.308-0.179-0.621-0.249-0.936l1.768-0.982c0.635-0.353,1.029-1.022,1.029-1.748c0-0.726-0.394-1.396-1.029-1.748
				l-1.768-0.982c0.071-0.316,0.154-0.628,0.249-0.936l2.024,0.034c0.011,0,0.022,0,0.033,0c0.714,0,1.374-0.381,1.732-1
				c0.363-0.629,0.357-1.406-0.017-2.029l-1.04-1.735c0.219-0.237,0.448-0.466,0.685-0.685l1.735,1.04
				c0.316,0.19,0.672,0.285,1.029,0.285c0.345,0,0.69-0.089,1-0.268c0.629-0.363,1.012-1.039,1-1.765l-0.033-2.024
				c0.308-0.095,0.621-0.179,0.936-0.249l0.982,1.768c0.353,0.635,1.022,1.029,1.748,1.029c0.726,0,1.396-0.394,1.748-1.029
				L449.479,413.16 M446.658,432.618c4.168,0,7.559-3.391,7.559-7.559c0-4.168-3.391-7.559-7.559-7.559
				c-4.168,0-7.559,3.391-7.559,7.559C439.099,429.227,442.49,432.618,446.658,432.618 M448.417,410.954l-1.668,3.003l-1.668-3.003
				c-1.413,0.163-2.764,0.53-4.022,1.073l0.057,3.439l-2.949-1.768c-1.117,0.833-2.11,1.826-2.943,2.943l1.768,2.949l-3.439-0.057
				c-0.543,1.258-0.91,2.609-1.074,4.022l3.003,1.668l-3.003,1.668c0.164,1.413,0.53,2.764,1.074,4.022l3.439-0.057l-1.768,2.949
				c0.833,1.117,1.826,2.109,2.943,2.943l2.949-1.768l-0.057,3.439c1.258,0.543,2.608,0.91,4.022,1.073l1.668-3.003l1.668,3.003
				c1.413-0.163,2.764-0.53,4.022-1.073l-0.057-3.439l2.949,1.768c1.117-0.833,2.11-1.826,2.943-2.943l-1.768-2.949l3.439,0.057
				c0.543-1.258,0.91-2.609,1.074-4.022l-3.003-1.668l3.003-1.668c-0.163-1.413-0.53-2.764-1.074-4.022l-3.439,0.057l1.768-2.949
				c-0.833-1.117-1.826-2.11-2.943-2.943l-2.949,1.768l0.057-3.439C451.181,411.484,449.83,411.117,448.417,410.954L448.417,410.954
				z M446.658,430.618c-3.07,0-5.559-2.489-5.559-5.559s2.489-5.559,5.559-5.559c3.07,0,5.559,2.489,5.559,5.559
				S449.728,430.618,446.658,430.618L446.658,430.618z"/>
		</g>
		<g>
			<path class="st25" d="M446.749,423.858c0.753,0,1.365,0.612,1.365,1.365c0,0.753-0.612,1.365-1.365,1.365
				c-0.753,0-1.365-0.612-1.365-1.365C445.384,424.47,445.996,423.858,446.749,423.858 M446.749,421.858
				c-1.858,0-3.365,1.506-3.365,3.365c0,1.858,1.506,3.365,3.365,3.365c1.858,0,3.365-1.506,3.365-3.365
				C450.114,423.364,448.607,421.858,446.749,421.858L446.749,421.858z"/>
		</g>
	</g>
</g>
<g>
	<g>
		<path class="st25" d="M437.261,236.339h3.718c2.171,0,3.484,1.287,3.484,3.146v0.026c0,2.106-1.639,3.198-3.68,3.198h-1.521v2.73
			h-2.002V236.339z M440.849,240.928c1.001,0,1.586-0.598,1.586-1.378v-0.026c0-0.897-0.624-1.378-1.625-1.378h-1.547v2.782H440.849
			z"/>
		<path class="st25" d="M445.88,236.339h4.16c1.156,0,2.054,0.325,2.651,0.923c0.507,0.507,0.78,1.222,0.78,2.08v0.026
			c0,1.469-0.793,2.392-1.95,2.821l2.224,3.25h-2.341l-1.95-2.912h-1.572v2.912h-2.002V236.339z M449.909,240.759
			c0.976,0,1.534-0.52,1.534-1.287v-0.026c0-0.858-0.598-1.3-1.573-1.3h-1.988v2.613H449.909z"/>
		<path class="st25" d="M454.811,240.915v-0.026c0-2.587,2.041-4.706,4.849-4.706c2.809,0,4.823,2.093,4.823,4.68v0.026
			c0,2.587-2.041,4.706-4.849,4.706C456.825,245.595,454.811,243.502,454.811,240.915z M462.39,240.915v-0.026
			c0-1.56-1.144-2.86-2.756-2.86s-2.73,1.274-2.73,2.834v0.026c0,1.56,1.145,2.86,2.756,2.86
			C461.271,243.749,462.39,242.475,462.39,240.915z"/>
		<path class="st25" d="M466.198,236.339h3.549c2.86,0,4.837,1.963,4.837,4.524v0.026c0,2.561-1.977,4.55-4.837,4.55h-3.549V236.339
			z M468.2,238.146v5.486h1.547c1.639,0,2.743-1.105,2.743-2.717v-0.026c0-1.612-1.104-2.743-2.743-2.743H468.2z"/>
		<path class="st25" d="M476.156,241.539v-5.2h2.002v5.148c0,1.482,0.741,2.249,1.963,2.249c1.223,0,1.964-0.741,1.964-2.184v-5.213
			h2.002v5.135c0,2.756-1.547,4.108-3.991,4.108S476.156,244.217,476.156,241.539z"/>
		<path class="st25" d="M485.659,240.915v-0.026c0-2.587,1.95-4.706,4.745-4.706c1.716,0,2.743,0.572,3.588,1.404l-1.273,1.469
			c-0.702-0.637-1.418-1.027-2.327-1.027c-1.534,0-2.64,1.274-2.64,2.834v0.026c0,1.56,1.079,2.86,2.64,2.86
			c1.04,0,1.677-0.416,2.392-1.066l1.274,1.287c-0.937,1.001-1.977,1.625-3.731,1.625
			C487.648,245.595,485.659,243.528,485.659,240.915z"/>
		<path class="st25" d="M497.71,238.185h-2.77v-1.846h7.541v1.846h-2.77v7.254h-2.002V238.185z"/>
		<path class="st25" d="M504.041,236.339h2.002v9.1h-2.002V236.339z"/>
		<path class="st25" d="M507.85,240.915v-0.026c0-2.587,2.041-4.706,4.85-4.706c2.808,0,4.823,2.093,4.823,4.68v0.026
			c0,2.587-2.041,4.706-4.85,4.706C509.865,245.595,507.85,243.502,507.85,240.915z M515.43,240.915v-0.026
			c0-1.56-1.145-2.86-2.757-2.86c-1.611,0-2.729,1.274-2.729,2.834v0.026c0,1.56,1.144,2.86,2.756,2.86
			S515.43,242.475,515.43,240.915z"/>
		<path class="st25" d="M519.238,236.339h1.846l4.264,5.603v-5.603h1.977v9.1h-1.703l-4.407-5.785v5.785h-1.976V236.339z"/>
		<path class="st25" d="M432.457,256.515v-0.026c0-2.587,2.041-4.706,4.849-4.706c2.809,0,4.823,2.093,4.823,4.68v0.026
			c0,2.587-2.041,4.707-4.849,4.707C434.472,261.196,432.457,259.102,432.457,256.515z M440.036,256.515v-0.026
			c0-1.56-1.144-2.86-2.756-2.86s-2.73,1.274-2.73,2.834v0.026c0,1.56,1.145,2.86,2.756,2.86
			C438.918,259.349,440.036,258.076,440.036,256.515z"/>
		<path class="st25" d="M443.845,251.939h3.718c2.172,0,3.484,1.287,3.484,3.146v0.026c0,2.106-1.638,3.198-3.679,3.198h-1.521v2.73
			h-2.002V251.939z M447.433,256.528c1.001,0,1.586-0.598,1.586-1.378v-0.026c0-0.897-0.624-1.378-1.625-1.378h-1.547v2.782H447.433
			z"/>
		<path class="st25" d="M454.583,253.785h-2.77v-1.846h7.541v1.846h-2.77v7.254h-2.002V253.785z"/>
		<path class="st25" d="M460.914,251.939h2.002v9.101h-2.002V251.939z"/>
		<path class="st25" d="M465.126,251.939h2.158l2.392,3.849l2.393-3.849h2.158v9.101h-1.989v-5.941l-2.562,3.887h-0.052
			l-2.535-3.848v5.902h-1.963V251.939z"/>
		<path class="st25" d="M476.436,251.939h2.002v9.101h-2.002V251.939z"/>
		<path class="st25" d="M480.375,259.518l5.005-5.824h-4.849v-1.755h7.423v1.521l-5.005,5.824h5.005v1.755h-7.579V259.518z"/>
		<path class="st25" d="M492.907,251.874h1.846l3.9,9.166h-2.093l-0.832-2.041h-3.849l-0.832,2.041h-2.041L492.907,251.874z
			 M495.014,257.23l-1.209-2.951l-1.209,2.951H495.014z"/>
		<path class="st25" d="M502.111,253.785h-2.77v-1.846h7.541v1.846h-2.77v7.254h-2.002V253.785z"/>
		<path class="st25" d="M508.442,251.939h2.002v9.101h-2.002V251.939z"/>
		<path class="st25" d="M512.251,256.515v-0.026c0-2.587,2.041-4.706,4.85-4.706c2.808,0,4.823,2.093,4.823,4.68v0.026
			c0,2.587-2.041,4.707-4.85,4.707C514.267,261.196,512.251,259.102,512.251,256.515z M519.831,256.515v-0.026
			c0-1.56-1.145-2.86-2.757-2.86c-1.611,0-2.729,1.274-2.729,2.834v0.026c0,1.56,1.144,2.86,2.756,2.86
			S519.831,258.076,519.831,256.515z"/>
		<path class="st25" d="M523.64,251.939h1.846l4.264,5.604v-5.604h1.977v9.101h-1.703l-4.407-5.785v5.785h-1.976V251.939z"/>
	</g>
</g>
<g>
	<g>
		<path class="st25" d="M388.365,526.593h3.718c2.171,0,3.484,1.287,3.484,3.146v0.025c0,2.106-1.638,3.198-3.679,3.198h-1.521v2.73
			h-2.002V526.593z M391.953,531.181c1.001,0,1.586-0.598,1.586-1.378v-0.025c0-0.897-0.624-1.379-1.625-1.379h-1.547v2.782H391.953
			z"/>
		<path class="st25" d="M396.984,526.593h4.16c1.157,0,2.054,0.325,2.652,0.923c0.507,0.507,0.78,1.223,0.78,2.08v0.026
			c0,1.469-0.793,2.392-1.95,2.821l2.223,3.25h-2.34l-1.95-2.912h-1.573v2.912h-2.002V526.593z M401.014,531.013
			c0.975,0,1.534-0.52,1.534-1.287V529.7c0-0.858-0.598-1.301-1.573-1.301h-1.989v2.613H401.014z"/>
		<path class="st25" d="M405.915,531.169v-0.026c0-2.587,2.041-4.706,4.849-4.706s4.823,2.094,4.823,4.681v0.025
			c0,2.588-2.041,4.706-4.849,4.706C407.93,535.848,405.915,533.756,405.915,531.169z M413.494,531.169v-0.026
			c0-1.56-1.144-2.859-2.756-2.859s-2.73,1.273-2.73,2.834v0.025c0,1.561,1.144,2.86,2.756,2.86S413.494,532.728,413.494,531.169z"
			/>
		<path class="st25" d="M417.303,526.593h3.549c2.86,0,4.837,1.963,4.837,4.524v0.025c0,2.562-1.977,4.551-4.837,4.551h-3.549
			V526.593z M419.305,528.399v5.486h1.547c1.639,0,2.743-1.104,2.743-2.717v-0.026c0-1.611-1.104-2.743-2.743-2.743H419.305z"/>
		<path class="st25" d="M427.261,531.793v-5.2h2.002v5.148c0,1.481,0.741,2.249,1.963,2.249c1.223,0,1.964-0.741,1.964-2.185v-5.213
			h2.002v5.135c0,2.757-1.547,4.108-3.991,4.108S427.261,534.471,427.261,531.793z"/>
		<path class="st25" d="M436.764,531.169v-0.026c0-2.587,1.95-4.706,4.745-4.706c1.716,0,2.743,0.572,3.588,1.404l-1.273,1.469
			c-0.702-0.637-1.418-1.026-2.327-1.026c-1.534,0-2.64,1.273-2.64,2.834v0.025c0,1.561,1.079,2.86,2.64,2.86
			c1.04,0,1.677-0.416,2.392-1.066l1.274,1.287c-0.937,1.001-1.977,1.625-3.731,1.625
			C438.753,535.848,436.764,533.782,436.764,531.169z"/>
		<path class="st25" d="M448.814,528.438h-2.77v-1.846h7.541v1.846h-2.77v7.255h-2.002V528.438z"/>
		<path class="st25" d="M455.146,526.593h2.002v9.101h-2.002V526.593z"/>
		<path class="st25" d="M458.954,531.169v-0.026c0-2.587,2.041-4.706,4.85-4.706c2.808,0,4.823,2.094,4.823,4.681v0.025
			c0,2.588-2.041,4.706-4.85,4.706C460.97,535.848,458.954,533.756,458.954,531.169z M466.534,531.169v-0.026
			c0-1.56-1.145-2.859-2.757-2.859c-1.611,0-2.729,1.273-2.729,2.834v0.025c0,1.561,1.144,2.86,2.756,2.86
			S466.534,532.728,466.534,531.169z"/>
		<path class="st25" d="M470.343,526.593h1.846l4.264,5.604v-5.604h1.977v9.101h-1.703l-4.407-5.785v5.785h-1.976V526.593z"/>
		<path class="st25" d="M414.761,542.192h2.002v7.28h4.537v1.82h-6.539V542.192z"/>
		<path class="st25" d="M422.834,542.192h2.002v9.101h-2.002V542.192z"/>
		<path class="st25" d="M427.046,542.192h1.846l4.265,5.604v-5.604h1.976v9.101h-1.703l-4.406-5.785v5.785h-1.977V542.192z"/>
		<path class="st25" d="M437.251,542.192h6.864v1.781h-4.875v1.847h4.29v1.78h-4.29v1.911h4.94v1.781h-6.93V542.192z"/>
		<path class="st25" d="M445.272,549.967l1.183-1.417c0.819,0.677,1.677,1.105,2.717,1.105c0.819,0,1.313-0.325,1.313-0.858v-0.025
			c0-0.508-0.312-0.768-1.833-1.157c-1.833-0.468-3.017-0.976-3.017-2.782v-0.026c0-1.65,1.326-2.743,3.186-2.743
			c1.326,0,2.457,0.416,3.38,1.157l-1.04,1.508c-0.806-0.559-1.599-0.896-2.366-0.896c-0.767,0-1.17,0.351-1.17,0.793v0.026
			c0,0.598,0.39,0.793,1.963,1.195c1.847,0.481,2.887,1.145,2.887,2.73v0.026c0,1.807-1.378,2.82-3.342,2.82
			C447.755,551.423,446.364,550.942,445.272,549.967z"/>
	</g>
</g>
<g>
	<g>
		<path class="st25" d="M165.05,298.137h4.16c1.157,0,2.054,0.325,2.652,0.923c0.507,0.507,0.78,1.222,0.78,2.08v0.026
			c0,1.469-0.793,2.392-1.95,2.821l2.223,3.25h-2.34l-1.95-2.912h-1.573v2.912h-2.002V298.137z M169.08,302.557
			c0.975,0,1.534-0.52,1.534-1.287v-0.026c0-0.858-0.598-1.3-1.573-1.3h-1.989v2.613H169.08z"/>
		<path class="st25" d="M174.384,298.137h6.864v1.781h-4.875v1.846h4.29v1.781h-4.29v1.911h4.94v1.781h-6.929V298.137z"/>
		<path class="st25" d="M186.148,298.072h1.846l3.9,9.166h-2.093l-0.832-2.041h-3.848l-0.832,2.041h-2.041L186.148,298.072z
			 M188.255,303.428l-1.209-2.951l-1.209,2.951H188.255z"/>
		<path class="st25" d="M193.233,298.137h2.002v7.28h4.537v1.82h-6.54V298.137z"/>
		<path class="st25" d="M200.773,302.258h4.004v1.898h-4.004V302.258z"/>
		<path class="st25" d="M208.573,299.983h-2.769v-1.846h7.541v1.846h-2.769v7.254h-2.002V299.983z"/>
		<path class="st25" d="M214.904,298.137h2.002v9.1h-2.002V298.137z"/>
		<path class="st25" d="M219.116,298.137h2.158l2.392,3.848l2.392-3.848h2.158v9.1h-1.989v-5.941l-2.561,3.887h-0.052l-2.535-3.848
			v5.902h-1.963V298.137z"/>
		<path class="st25" d="M230.335,298.137h6.864v1.781h-4.875v1.846h4.29v1.781h-4.29v1.911h4.94v1.781h-6.93V298.137z"/>
		<path class="st25" d="M165.992,313.672h1.846l3.9,9.166h-2.093l-0.832-2.041h-3.848l-0.832,2.041h-2.041L165.992,313.672z
			 M168.098,319.028l-1.209-2.951l-1.209,2.951H168.098z"/>
		<path class="st25" d="M173.077,313.737h1.846l4.264,5.604v-5.604h1.976v9.101h-1.703l-4.407-5.785v5.785h-1.976V313.737z"/>
		<path class="st25" d="M186.402,313.672h1.846l3.9,9.166h-2.093l-0.832-2.041h-3.848l-0.832,2.041h-2.041L186.402,313.672z
			 M188.508,319.028l-1.209-2.951l-1.209,2.951H188.508z"/>
		<path class="st25" d="M193.487,313.737h2.002v7.28h4.537v1.82h-6.539V313.737z"/>
		<path class="st25" d="M204.03,319.249l-3.497-5.513h2.34l2.171,3.653l2.21-3.653h2.275l-3.497,5.474v3.627h-2.002V319.249z"/>
		<path class="st25" d="M212.83,315.583h-2.769v-1.846h7.541v1.846h-2.769v7.254h-2.002V315.583z"/>
		<path class="st25" d="M219.161,313.737h2.002v9.101h-2.002V313.737z"/>
		<path class="st25" d="M222.97,318.313v-0.026c0-2.587,1.95-4.706,4.745-4.706c1.716,0,2.743,0.572,3.588,1.404l-1.274,1.469
			c-0.702-0.637-1.417-1.027-2.327-1.027c-1.534,0-2.639,1.274-2.639,2.834v0.026c0,1.56,1.079,2.86,2.639,2.86
			c1.04,0,1.677-0.416,2.392-1.066l1.274,1.287c-0.936,1.001-1.976,1.625-3.731,1.625
			C224.959,322.993,222.97,320.926,222.97,318.313z"/>
		<path class="st25" d="M232.278,321.511l1.183-1.417c0.819,0.676,1.677,1.105,2.717,1.105c0.819,0,1.313-0.325,1.313-0.858v-0.026
			c0-0.507-0.312-0.767-1.833-1.157c-1.833-0.468-3.016-0.975-3.016-2.782v-0.026c0-1.651,1.326-2.743,3.185-2.743
			c1.326,0,2.457,0.416,3.38,1.157l-1.04,1.508c-0.806-0.559-1.599-0.897-2.366-0.897s-1.17,0.351-1.17,0.793v0.026
			c0,0.598,0.39,0.793,1.963,1.196c1.846,0.481,2.886,1.144,2.886,2.73v0.026c0,1.807-1.378,2.821-3.341,2.821
			C234.761,322.967,233.37,322.486,232.278,321.511z"/>
	</g>
</g>
<rect x="553.908" y="432.048" class="st25" width="122.708" height="43.443"/>
<rect x="565.946" y="131.818" class="st25" width="147.582" height="43.443"/>
<g>
	<g>
		<path class="st24" d="M572.334,441.797h3.549c2.86,0,4.836,1.963,4.836,4.524v0.026c0,2.561-1.976,4.55-4.836,4.55h-3.549V441.797
			z M574.336,443.603v5.486h1.547c1.638,0,2.743-1.104,2.743-2.717v-0.025c0-1.612-1.105-2.744-2.743-2.744H574.336z"/>
		<path class="st24" d="M582.435,441.797h6.864v1.781h-4.875v1.846h4.29v1.781h-4.29v1.911h4.94v1.781h-6.93V441.797z"/>
		<path class="st24" d="M590.677,446.373v-0.025c0-2.588,1.95-4.707,4.745-4.707c1.716,0,2.743,0.572,3.588,1.404l-1.273,1.469
			c-0.702-0.637-1.418-1.026-2.327-1.026c-1.534,0-2.64,1.274-2.64,2.834v0.026c0,1.56,1.079,2.859,2.64,2.859
			c1.04,0,1.677-0.416,2.392-1.066l1.274,1.287c-0.937,1.002-1.977,1.625-3.731,1.625
			C592.666,451.053,590.677,448.986,590.677,446.373z"/>
		<path class="st24" d="M600.699,441.797h2.002v9.101h-2.002V441.797z"/>
		<path class="st24" d="M604.288,449.571l1.183-1.417c0.819,0.676,1.677,1.105,2.717,1.105c0.819,0,1.313-0.325,1.313-0.858v-0.026
			c0-0.507-0.312-0.767-1.833-1.156c-1.833-0.469-3.017-0.976-3.017-2.783v-0.025c0-1.65,1.326-2.743,3.186-2.743
			c1.326,0,2.457,0.416,3.38,1.157l-1.04,1.508c-0.806-0.559-1.599-0.896-2.366-0.896c-0.767,0-1.17,0.351-1.17,0.793v0.025
			c0,0.598,0.39,0.793,1.963,1.196c1.847,0.481,2.887,1.144,2.887,2.729v0.027c0,1.807-1.378,2.82-3.342,2.82
			C606.771,451.027,605.38,450.547,604.288,449.571z"/>
		<path class="st24" d="M613.257,441.797h2.002v9.101h-2.002V441.797z"/>
		<path class="st24" d="M617.066,446.373v-0.025c0-2.588,2.041-4.707,4.849-4.707c2.809,0,4.823,2.094,4.823,4.681v0.026
			c0,2.587-2.041,4.705-4.849,4.705C619.081,451.053,617.066,448.961,617.066,446.373z M624.646,446.373v-0.025
			c0-1.561-1.144-2.86-2.756-2.86s-2.73,1.274-2.73,2.834v0.026c0,1.56,1.145,2.859,2.756,2.859
			C623.527,449.207,624.646,447.933,624.646,446.373z"/>
		<path class="st24" d="M628.454,441.797h1.846l4.265,5.604v-5.604h1.976v9.101h-1.703l-4.406-5.785v5.785h-1.977V441.797z"/>
		<path class="st24" d="M638.035,449.571l1.183-1.417c0.819,0.676,1.678,1.105,2.718,1.105c0.818,0,1.312-0.325,1.312-0.858v-0.026
			c0-0.507-0.312-0.767-1.833-1.156c-1.833-0.469-3.016-0.976-3.016-2.783v-0.025c0-1.65,1.326-2.743,3.185-2.743
			c1.326,0,2.457,0.416,3.381,1.157l-1.04,1.508c-0.807-0.559-1.6-0.896-2.366-0.896c-0.768,0-1.17,0.351-1.17,0.793v0.025
			c0,0.598,0.39,0.793,1.963,1.196c1.846,0.481,2.886,1.144,2.886,2.729v0.027c0,1.807-1.378,2.82-3.341,2.82
			C640.519,451.027,639.127,450.547,638.035,449.571z"/>
		<path class="st24" d="M655.819,450.013c-0.741,0.611-1.612,1.014-2.665,1.014c-1.742,0-3.056-1.014-3.056-2.626v-0.026
			c0-1.156,0.624-1.976,1.769-2.496c-0.442-0.623-0.637-1.195-0.637-1.82v-0.025c0-1.248,1.001-2.393,2.756-2.393
			c1.547,0,2.561,1.015,2.561,2.289v0.025c0,1.223-0.779,1.938-1.911,2.379l1.21,1.209c0.299-0.468,0.598-1,0.884-1.56l1.469,0.806
			c-0.351,0.637-0.741,1.313-1.196,1.924l1.34,1.34l-1.47,1.027L655.819,450.013z M654.701,448.869l-1.742-1.768
			c-0.598,0.312-0.845,0.754-0.845,1.195v0.026c0,0.638,0.533,1.065,1.273,1.065C653.843,449.388,654.285,449.194,654.701,448.869z
			 M654.806,444.072v-0.025c0-0.521-0.352-0.846-0.858-0.846c-0.533,0-0.884,0.377-0.884,0.923v0.026
			c0,0.402,0.155,0.701,0.532,1.131C654.39,444.982,654.806,444.644,654.806,444.072z"/>
		<path class="st24" d="M588.233,457.332h1.846l3.9,9.166h-2.094l-0.832-2.041h-3.848l-0.832,2.041h-2.041L588.233,457.332z
			 M590.339,462.688l-1.209-2.951l-1.209,2.951H590.339z"/>
		<path class="st24" d="M594.915,461.972v-0.025c0-2.587,1.95-4.706,4.745-4.706c1.716,0,2.743,0.571,3.588,1.403l-1.273,1.47
			c-0.702-0.638-1.418-1.026-2.327-1.026c-1.534,0-2.64,1.273-2.64,2.834v0.025c0,1.561,1.079,2.86,2.64,2.86
			c1.04,0,1.677-0.416,2.392-1.065l1.274,1.286c-0.937,1.001-1.977,1.626-3.731,1.626
			C596.904,466.654,594.915,464.586,594.915,461.972z"/>
		<path class="st24" d="M606.966,459.243h-2.77v-1.847h7.541v1.847h-2.77v7.255h-2.002V459.243z"/>
		<path class="st24" d="M613.297,457.396h2.002v9.102h-2.002V457.396z"/>
		<path class="st24" d="M617.105,461.972v-0.025c0-2.587,2.041-4.706,4.85-4.706c2.808,0,4.823,2.093,4.823,4.681v0.025
			c0,2.588-2.041,4.707-4.85,4.707C619.121,466.654,617.105,464.56,617.105,461.972z M624.686,461.972v-0.025
			c0-1.561-1.145-2.859-2.757-2.859c-1.611,0-2.729,1.273-2.729,2.834v0.025c0,1.561,1.144,2.86,2.756,2.86
			S624.686,463.533,624.686,461.972z"/>
		<path class="st24" d="M628.493,457.396h1.846l4.265,5.604v-5.604h1.976v9.102h-1.703l-4.406-5.785v5.785h-1.977V457.396z"/>
		<path class="st24" d="M638.074,465.172l1.183-1.418c0.819,0.677,1.678,1.105,2.718,1.105c0.818,0,1.312-0.324,1.312-0.857v-0.026
			c0-0.507-0.312-0.767-1.833-1.157c-1.833-0.468-3.016-0.975-3.016-2.782v-0.026c0-1.65,1.326-2.742,3.185-2.742
			c1.326,0,2.457,0.416,3.381,1.156l-1.04,1.508c-0.807-0.559-1.6-0.896-2.366-0.896c-0.768,0-1.17,0.352-1.17,0.793v0.026
			c0,0.598,0.39,0.793,1.963,1.196c1.846,0.48,2.886,1.144,2.886,2.729v0.026c0,1.807-1.378,2.82-3.341,2.82
			C640.558,466.627,639.166,466.146,638.074,465.172z"/>
	</g>
</g>
<rect x="144.181" y="432.048" class="st25" width="166.794" height="43.443"/>
<g>
	<g>
		<path class="st24" d="M165.282,441.797h1.846l4.264,5.604v-5.604h1.976v9.101h-1.703l-4.407-5.785v5.785h-1.977V441.797z"/>
		<path class="st24" d="M175.487,441.797h6.864v1.781h-4.875v1.846h4.29v1.781h-4.29v1.911h4.94v1.781h-6.93V441.797z"/>
		<path class="st24" d="M183.431,441.797h2.145l1.885,6.162l2.041-6.188h1.716l2.041,6.188l1.885-6.162h2.093l-3.107,9.166h-1.742
			l-2.054-5.955l-2.054,5.955h-1.742L183.431,441.797z"/>
		<path class="st24" d="M202.488,441.797h3.718c2.171,0,3.484,1.287,3.484,3.146v0.025c0,2.106-1.638,3.199-3.679,3.199h-1.521
			v2.729h-2.002V441.797z M206.077,446.387c1.001,0,1.586-0.599,1.586-1.379v-0.025c0-0.896-0.624-1.379-1.625-1.379h-1.547v2.783
			H206.077z"/>
		<path class="st24" d="M211.107,441.797h4.16c1.157,0,2.054,0.325,2.652,0.924c0.507,0.506,0.78,1.222,0.78,2.08v0.025
			c0,1.469-0.793,2.393-1.95,2.821l2.223,3.25h-2.34l-1.95-2.912h-1.573v2.912h-2.002V441.797z M215.137,446.217
			c0.975,0,1.534-0.52,1.534-1.287v-0.025c0-0.857-0.598-1.301-1.573-1.301h-1.989v2.613H215.137z"/>
		<path class="st24" d="M220.038,446.373v-0.025c0-2.588,2.041-4.707,4.849-4.707s4.823,2.094,4.823,4.681v0.026
			c0,2.587-2.041,4.705-4.849,4.705S220.038,448.961,220.038,446.373z M227.617,446.373v-0.025c0-1.561-1.144-2.86-2.756-2.86
			s-2.73,1.274-2.73,2.834v0.026c0,1.56,1.144,2.859,2.756,2.859C226.5,449.207,227.617,447.933,227.617,446.373z"/>
		<path class="st24" d="M231.426,441.797h3.549c2.86,0,4.836,1.963,4.836,4.524v0.026c0,2.561-1.976,4.55-4.836,4.55h-3.549V441.797
			z M233.428,443.603v5.486h1.547c1.638,0,2.743-1.104,2.743-2.717v-0.025c0-1.612-1.105-2.744-2.743-2.744H233.428z"/>
		<path class="st24" d="M241.384,446.998v-5.201h2.002v5.148c0,1.482,0.741,2.249,1.963,2.249s1.963-0.741,1.963-2.185v-5.213h2.002
			v5.135c0,2.757-1.547,4.109-3.991,4.109S241.384,449.676,241.384,446.998z"/>
		<path class="st24" d="M250.887,446.373v-0.025c0-2.588,1.95-4.707,4.745-4.707c1.716,0,2.743,0.572,3.588,1.404l-1.274,1.469
			c-0.702-0.637-1.417-1.026-2.327-1.026c-1.534,0-2.639,1.274-2.639,2.834v0.026c0,1.56,1.079,2.859,2.639,2.859
			c1.04,0,1.677-0.416,2.392-1.066l1.274,1.287c-0.936,1.002-1.976,1.625-3.731,1.625
			C252.876,451.053,250.887,448.986,250.887,446.373z"/>
		<path class="st24" d="M262.938,443.642h-2.769v-1.846h7.541v1.846h-2.769v7.255h-2.002V443.642z"/>
		<path class="st24" d="M269.269,441.797h2.002v9.101h-2.002V441.797z"/>
		<path class="st24" d="M273.078,446.373v-0.025c0-2.588,2.041-4.707,4.849-4.707s4.823,2.094,4.823,4.681v0.026
			c0,2.587-2.041,4.705-4.849,4.705S273.078,448.961,273.078,446.373z M280.657,446.373v-0.025c0-1.561-1.144-2.86-2.756-2.86
			s-2.73,1.274-2.73,2.834v0.026c0,1.56,1.144,2.859,2.756,2.859C279.54,449.207,280.657,447.933,280.657,446.373z"/>
		<path class="st24" d="M284.466,441.797h1.846l4.264,5.604v-5.604h1.976v9.101h-1.703l-4.407-5.785v5.785h-1.976V441.797z"/>
		<path class="st24" d="M210.542,457.396h3.549c2.86,0,4.836,1.964,4.836,4.525v0.025c0,2.561-1.976,4.551-4.836,4.551h-3.549
			V457.396z M212.544,459.204v5.486h1.547c1.638,0,2.743-1.104,2.743-2.718v-0.025c0-1.611-1.105-2.743-2.743-2.743H212.544z"/>
		<path class="st24" d="M223.763,457.332h1.846l3.9,9.166h-2.093l-0.832-2.041h-3.848l-0.832,2.041h-2.041L223.763,457.332z
			 M225.869,462.688l-1.209-2.951l-1.209,2.951H225.869z"/>
		<path class="st24" d="M232.967,459.243h-2.769v-1.847h7.541v1.847h-2.769v7.255h-2.002V459.243z"/>
		<path class="st24" d="M242.327,457.332h1.846l3.9,9.166h-2.093l-0.832-2.041H241.3l-0.832,2.041h-2.041L242.327,457.332z
			 M244.433,462.688l-1.209-2.951l-1.209,2.951H244.433z"/>
	</g>
</g>
<g>
	<g>
		<path class="st24" d="M586.728,140.504h1.846l3.9,9.166h-2.093l-0.832-2.041H585.7l-0.832,2.041h-2.041L586.728,140.504z
			 M588.834,145.861l-1.209-2.951l-1.21,2.951H588.834z"/>
		<path class="st24" d="M593.812,140.57h1.846l4.265,5.603v-5.603h1.976v9.1h-1.703l-4.407-5.785v5.785h-1.976V140.57z"/>
		<path class="st24" d="M607.138,140.504h1.846l3.9,9.166h-2.093l-0.832-2.041h-3.849l-0.832,2.041h-2.041L607.138,140.504z
			 M609.244,145.861l-1.209-2.951l-1.21,2.951H609.244z"/>
		<path class="st24" d="M614.223,140.57h2.002v7.28h4.537v1.82h-6.539V140.57z"/>
		<path class="st24" d="M624.766,146.081l-3.497-5.512h2.34l2.171,3.653l2.211-3.653h2.274l-3.497,5.473v3.627h-2.002V146.081z"/>
		<path class="st24" d="M633.565,142.415h-2.769v-1.846h7.54v1.846h-2.769v7.254h-2.003V142.415z"/>
		<path class="st24" d="M639.896,140.57h2.002v9.1h-2.002V140.57z"/>
		<path class="st24" d="M643.706,145.146v-0.026c0-2.587,1.95-4.706,4.745-4.706c1.716,0,2.743,0.572,3.588,1.404l-1.274,1.469
			c-0.701-0.637-1.417-1.027-2.326-1.027c-1.534,0-2.64,1.274-2.64,2.834v0.026c0,1.56,1.079,2.86,2.64,2.86
			c1.04,0,1.677-0.416,2.392-1.066l1.274,1.287c-0.937,1.001-1.977,1.625-3.731,1.625
			C645.695,149.825,643.706,147.759,643.706,145.146z"/>
		<path class="st24" d="M653.014,148.344l1.183-1.417c0.819,0.676,1.678,1.105,2.718,1.105c0.818,0,1.312-0.325,1.312-0.858v-0.026
			c0-0.507-0.312-0.767-1.833-1.157c-1.833-0.468-3.016-0.975-3.016-2.782v-0.026c0-1.651,1.326-2.743,3.185-2.743
			c1.326,0,2.457,0.416,3.381,1.157l-1.04,1.508c-0.807-0.559-1.6-0.897-2.366-0.897c-0.768,0-1.17,0.351-1.17,0.793v0.026
			c0,0.598,0.39,0.793,1.963,1.196c1.846,0.481,2.886,1.144,2.886,2.73v0.026c0,1.807-1.378,2.821-3.341,2.821
			C655.497,149.8,654.105,149.319,653.014,148.344z"/>
		<path class="st24" d="M665.728,140.57h6.93v1.82h-4.928v1.937h4.342v1.82h-4.342v3.523h-2.002V140.57z"/>
		<path class="st24" d="M673.787,145.146v-0.026c0-2.587,2.041-4.706,4.85-4.706c2.808,0,4.823,2.093,4.823,4.68v0.026
			c0,2.587-2.041,4.706-4.85,4.706C675.803,149.825,673.787,147.733,673.787,145.146z M681.366,145.146v-0.026
			c0-1.56-1.144-2.86-2.756-2.86s-2.729,1.274-2.729,2.834v0.026c0,1.56,1.144,2.86,2.756,2.86S681.366,146.705,681.366,145.146z"/>
		<path class="st24" d="M685.175,140.57h4.16c1.157,0,2.055,0.325,2.652,0.923c0.507,0.507,0.78,1.222,0.78,2.08v0.026
			c0,1.469-0.793,2.392-1.95,2.821l2.224,3.25H690.7l-1.95-2.912h-1.572v2.912h-2.003V140.57z M689.205,144.99
			c0.976,0,1.534-0.52,1.534-1.287v-0.026c0-0.858-0.598-1.3-1.573-1.3h-1.988v2.613H689.205z"/>
		<path class="st24" d="M573.929,156.169h3.549c2.86,0,4.837,1.963,4.837,4.524v0.026c0,2.561-1.977,4.55-4.837,4.55h-3.549V156.169
			z M575.931,157.976v5.486h1.547c1.639,0,2.743-1.105,2.743-2.717v-0.026c0-1.612-1.104-2.743-2.743-2.743H575.931z"/>
		<path class="st24" d="M584.029,156.169h6.864v1.781h-4.875v1.846h4.29v1.781h-4.29v1.911h4.94v1.781h-6.93V156.169z"/>
		<path class="st24" d="M592.271,160.745v-0.026c0-2.587,1.95-4.706,4.745-4.706c1.717,0,2.743,0.572,3.589,1.404l-1.274,1.469
			c-0.702-0.637-1.417-1.027-2.327-1.027c-1.534,0-2.639,1.274-2.639,2.834v0.026c0,1.56,1.079,2.86,2.639,2.86
			c1.04,0,1.677-0.416,2.393-1.066l1.273,1.287c-0.936,1.001-1.976,1.625-3.731,1.625
			C594.261,165.426,592.271,163.359,592.271,160.745z"/>
		<path class="st24" d="M602.295,156.169h2.002v9.101h-2.002V156.169z"/>
		<path class="st24" d="M605.883,163.944l1.183-1.417c0.819,0.676,1.678,1.105,2.718,1.105c0.818,0,1.312-0.325,1.312-0.858v-0.026
			c0-0.507-0.312-0.767-1.833-1.157c-1.833-0.468-3.016-0.975-3.016-2.782v-0.026c0-1.651,1.326-2.743,3.185-2.743
			c1.326,0,2.457,0.416,3.381,1.157l-1.04,1.508c-0.807-0.559-1.6-0.897-2.366-0.897c-0.768,0-1.17,0.351-1.17,0.793v0.026
			c0,0.598,0.39,0.793,1.963,1.196c1.846,0.481,2.886,1.144,2.886,2.73v0.026c0,1.807-1.378,2.821-3.341,2.821
			C608.366,165.4,606.975,164.919,605.883,163.944z"/>
		<path class="st24" d="M614.853,156.169h2.002v9.101h-2.002V156.169z"/>
		<path class="st24" d="M618.661,160.745v-0.026c0-2.587,2.041-4.706,4.85-4.706c2.808,0,4.823,2.093,4.823,4.68v0.026
			c0,2.587-2.041,4.707-4.85,4.707C620.677,165.426,618.661,163.333,618.661,160.745z M626.24,160.745v-0.026
			c0-1.56-1.144-2.86-2.756-2.86s-2.729,1.274-2.729,2.834v0.026c0,1.56,1.144,2.86,2.756,2.86S626.24,162.306,626.24,160.745z"/>
		<path class="st24" d="M630.049,156.169h1.847l4.264,5.604v-5.604h1.977v9.101h-1.703l-4.407-5.785v5.785h-1.977V156.169z"/>
		<path class="st24" d="M643.465,163.944l1.184-1.417c0.819,0.676,1.677,1.105,2.717,1.105c0.819,0,1.313-0.325,1.313-0.858v-0.026
			c0-0.507-0.312-0.767-1.833-1.157c-1.833-0.468-3.017-0.975-3.017-2.782v-0.026c0-1.651,1.326-2.743,3.186-2.743
			c1.326,0,2.457,0.416,3.38,1.157l-1.04,1.508c-0.806-0.559-1.599-0.897-2.366-0.897c-0.767,0-1.17,0.351-1.17,0.793v0.026
			c0,0.598,0.39,0.793,1.963,1.196c1.847,0.481,2.887,1.144,2.887,2.73v0.026c0,1.807-1.379,2.821-3.342,2.821
			C645.948,165.4,644.558,164.919,643.465,163.944z"/>
		<path class="st24" d="M652.201,161.369v-5.2h2.002v5.148c0,1.482,0.741,2.249,1.963,2.249c1.223,0,1.964-0.741,1.964-2.184v-5.213
			h2.002v5.135c0,2.756-1.548,4.108-3.991,4.108C653.696,165.413,652.201,164.048,652.201,161.369z"/>
		<path class="st24" d="M662.107,156.169h3.718c2.172,0,3.484,1.287,3.484,3.146v0.026c0,2.106-1.638,3.198-3.679,3.198h-1.521v2.73
			h-2.002V156.169z M665.695,160.759c1.001,0,1.586-0.598,1.586-1.378v-0.026c0-0.897-0.624-1.378-1.625-1.378h-1.547v2.782H665.695
			z"/>
		<path class="st24" d="M670.727,156.169h3.718c2.172,0,3.484,1.287,3.484,3.146v0.026c0,2.106-1.638,3.198-3.679,3.198h-1.521v2.73
			h-2.002V156.169z M674.314,160.759c1.001,0,1.586-0.598,1.586-1.378v-0.026c0-0.897-0.624-1.378-1.625-1.378h-1.547v2.782H674.314
			z"/>
		<path class="st24" d="M678.942,160.745v-0.026c0-2.587,2.041-4.706,4.849-4.706c2.809,0,4.823,2.093,4.823,4.68v0.026
			c0,2.587-2.041,4.707-4.849,4.707C680.957,165.426,678.942,163.333,678.942,160.745z M686.521,160.745v-0.026
			c0-1.56-1.145-2.86-2.756-2.86c-1.612,0-2.73,1.274-2.73,2.834v0.026c0,1.56,1.145,2.86,2.756,2.86
			C685.403,163.58,686.521,162.306,686.521,160.745z"/>
		<path class="st24" d="M690.33,156.169h4.16c1.157,0,2.054,0.325,2.652,0.923c0.507,0.507,0.779,1.222,0.779,2.08v0.026
			c0,1.469-0.793,2.392-1.949,2.821l2.223,3.25h-2.34l-1.95-2.912h-1.573v2.912h-2.002V156.169z M694.36,160.59
			c0.975,0,1.534-0.52,1.534-1.287v-0.026c0-0.858-0.599-1.3-1.573-1.3h-1.989v2.613H694.36z"/>
		<path class="st24" d="M701.783,158.015h-2.77v-1.846h7.541v1.846h-2.77v7.254h-2.002V158.015z"/>
	</g>
</g>
<g>
	<g>
		<linearGradient id="SVGID_28_" gradientUnits="userSpaceOnUse" x1="477.0946" y1="296.9018" x2="675.143" y2="296.9018">
			<stop  offset="0" style="stop-color:#17C9C0"/>
			<stop  offset="0.1678" style="stop-color:#00A9D7"/>
			<stop  offset="0.5644" style="stop-color:#1CD0BB"/>
			<stop  offset="1" style="stop-color:#0FBEC8"/>
		</linearGradient>
		<polyline class="st32" points="478.595,276.927 478.595,315.376 675.143,315.376 		"/>
		<g>
			<linearGradient id="SVGID_29_" gradientUnits="userSpaceOnUse" x1="477.0946" y1="274.3547" x2="675.143" y2="274.3547">
				<stop  offset="0" style="stop-color:#17C9C0"/>
				<stop  offset="0.1678" style="stop-color:#00A9D7"/>
				<stop  offset="0.5644" style="stop-color:#1CD0BB"/>
				<stop  offset="1" style="stop-color:#0FBEC8"/>
			</linearGradient>
			<polygon class="st33" points="474.107,278.241 478.595,270.469 483.082,278.241 			"/>
		</g>
	</g>
</g>
<rect x="515.998" y="293.433" class="st25" width="122.708" height="43.443"/>
<g>
	<g>
		<path class="st24" d="M528.552,308.756v-0.026c0-2.587,1.95-4.706,4.745-4.706c1.716,0,2.743,0.572,3.588,1.404l-1.274,1.469
			c-0.701-0.637-1.417-1.027-2.326-1.027c-1.534,0-2.64,1.274-2.64,2.834v0.026c0,1.56,1.079,2.86,2.64,2.86
			c1.04,0,1.677-0.416,2.392-1.066l1.274,1.287c-0.937,1.001-1.977,1.625-3.731,1.625
			C530.541,313.436,528.552,311.369,528.552,308.756z"/>
		<path class="st24" d="M538.08,308.756v-0.026c0-2.587,2.041-4.706,4.85-4.706c2.808,0,4.823,2.093,4.823,4.68v0.026
			c0,2.587-2.041,4.706-4.85,4.706C540.096,313.436,538.08,311.343,538.08,308.756z M545.659,308.756v-0.026
			c0-1.56-1.144-2.86-2.756-2.86s-2.729,1.274-2.729,2.834v0.026c0,1.56,1.144,2.86,2.756,2.86S545.659,310.316,545.659,308.756z"/>
		<path class="st24" d="M549.468,304.18h1.847l4.264,5.603v-5.603h1.977v9.1h-1.703l-4.407-5.785v5.785h-1.977V304.18z"/>
		<path class="st24" d="M561.792,306.026h-2.769v-1.846h7.54v1.846h-2.769v7.254h-2.003V306.026z"/>
		<path class="st24" d="M568.123,304.18h2.002v9.1h-2.002V304.18z"/>
		<path class="st24" d="M572.335,304.18h1.846l4.265,5.603v-5.603h1.976v9.1h-1.703l-4.407-5.785v5.785h-1.976V304.18z"/>
		<path class="st24" d="M582.397,309.38v-5.2h2.002v5.148c0,1.482,0.74,2.249,1.963,2.249c1.222,0,1.963-0.741,1.963-2.184v-5.213
			h2.002v5.135c0,2.756-1.547,4.108-3.991,4.108S582.397,312.058,582.397,309.38z"/>
		<path class="st24" d="M591.9,308.756v-0.026c0-2.587,2.041-4.706,4.849-4.706c2.809,0,4.823,2.093,4.823,4.68v0.026
			c0,2.587-2.041,4.706-4.849,4.706C593.915,313.436,591.9,311.343,591.9,308.756z M599.479,308.756v-0.026
			c0-1.56-1.145-2.86-2.756-2.86c-1.612,0-2.73,1.274-2.73,2.834v0.026c0,1.56,1.145,2.86,2.756,2.86
			C598.361,311.59,599.479,310.316,599.479,308.756z"/>
		<path class="st24" d="M603.146,309.38v-5.2h2.002v5.148c0,1.482,0.74,2.249,1.963,2.249c1.222,0,1.963-0.741,1.963-2.184v-5.213
			h2.002v5.135c0,2.756-1.547,4.108-3.991,4.108S603.146,312.058,603.146,309.38z"/>
		<path class="st24" d="M612.427,311.954l1.184-1.417c0.819,0.676,1.677,1.105,2.717,1.105c0.819,0,1.313-0.325,1.313-0.858v-0.026
			c0-0.507-0.312-0.767-1.833-1.157c-1.833-0.468-3.017-0.975-3.017-2.782v-0.026c0-1.651,1.326-2.743,3.186-2.743
			c1.326,0,2.457,0.416,3.38,1.157l-1.04,1.508c-0.806-0.559-1.599-0.897-2.366-0.897c-0.767,0-1.17,0.351-1.17,0.793v0.026
			c0,0.598,0.39,0.793,1.963,1.196c1.847,0.481,2.887,1.144,2.887,2.73v0.026c0,1.807-1.379,2.821-3.342,2.821
			C614.91,313.41,613.52,312.929,612.427,311.954z"/>
		<path class="st24" d="M531.184,319.78h2.21l2.38,6.41l2.379-6.41h2.158l-3.68,9.166h-1.768L531.184,319.78z"/>
		<path class="st24" d="M544.769,319.715h1.847l3.9,9.166h-2.094l-0.832-2.041h-3.848l-0.832,2.041h-2.041L544.769,319.715z
			 M546.875,325.071l-1.209-2.951l-1.209,2.951H546.875z"/>
		<path class="st24" d="M551.854,319.78h2.003v7.28h4.537v1.82h-6.54V319.78z"/>
		<path class="st24" d="M559.927,319.78h2.002v9.101h-2.002V319.78z"/>
		<path class="st24" d="M564.139,319.78h3.55c2.86,0,4.836,1.963,4.836,4.524v0.026c0,2.561-1.976,4.55-4.836,4.55h-3.55V319.78z
			 M566.142,321.587v5.486h1.547c1.638,0,2.743-1.105,2.743-2.717v-0.026c0-1.612-1.105-2.743-2.743-2.743H566.142z"/>
		<path class="st24" d="M577.359,319.715h1.847l3.9,9.166h-2.094l-0.832-2.041h-3.848l-0.832,2.041h-2.041L577.359,319.715z
			 M579.466,325.071l-1.209-2.951l-1.209,2.951H579.466z"/>
		<path class="st24" d="M586.563,321.626h-2.769v-1.846h7.54v1.846h-2.769v7.254h-2.003V321.626z"/>
		<path class="st24" d="M592.895,319.78h2.002v9.101h-2.002V319.78z"/>
		<path class="st24" d="M596.704,324.356v-0.026c0-2.587,2.041-4.706,4.849-4.706c2.809,0,4.823,2.093,4.823,4.68v0.026
			c0,2.587-2.041,4.707-4.849,4.707C598.719,329.036,596.704,326.943,596.704,324.356z M604.283,324.356v-0.026
			c0-1.56-1.145-2.86-2.756-2.86c-1.612,0-2.73,1.274-2.73,2.834v0.026c0,1.56,1.145,2.86,2.756,2.86
			C603.165,327.19,604.283,325.916,604.283,324.356z"/>
		<path class="st24" d="M608.092,319.78h1.846l4.265,5.604v-5.604h1.976v9.101h-1.703l-4.407-5.785v5.785h-1.976V319.78z"/>
	</g>
</g>
<g>
	<g>
		<g>
			<g>
				<path class="st25" d="M453.136,136.14c2.086,0,2.09-3.243,0-3.243C451.05,132.898,451.046,136.14,453.136,136.14L453.136,136.14
					z"/>
			</g>
		</g>
		<g>
			<g>
				<path class="st25" d="M453.091,143.706c2.086,0,2.09-3.243,0-3.243C451.005,140.463,451.001,143.706,453.091,143.706
					L453.091,143.706z"/>
			</g>
		</g>
		<g>
			<g>
				<path class="st25" d="M453.047,151.272c2.086,0,2.09-3.243,0-3.243C450.96,148.029,450.957,151.272,453.047,151.272
					L453.047,151.272z"/>
			</g>
		</g>
		<g>
			<g>
				<path class="st25" d="M453.002,158.837c2.086,0,2.09-3.243,0-3.243C450.915,155.595,450.912,158.837,453.002,158.837
					L453.002,158.837z"/>
			</g>
		</g>
		<g>
			<g>
				<path class="st25" d="M452.957,166.403c2.086,0,2.09-3.243,0-3.243C450.871,163.16,450.867,166.403,452.957,166.403
					L452.957,166.403z"/>
			</g>
		</g>
		<g>
			<g>
				<path class="st25" d="M452.912,173.969c2.086,0,2.09-3.243,0-3.243C450.826,170.726,450.822,173.969,452.912,173.969
					L452.912,173.969z"/>
			</g>
		</g>
		<g>
			<g>
				<path class="st25" d="M452.867,181.534c2.086,0,2.09-3.243,0-3.243C450.781,178.292,450.778,181.534,452.867,181.534
					L452.867,181.534z"/>
			</g>
		</g>
	</g>
	<line class="st34" x1="451.967" y1="187.657" x2="509.724" y2="187.657"/>
	<g>
		<g>
			<path class="st25" d="M459.814,172.266h0.005H459.814 M459.807,173.347l4.21,0.025l-0.049,8.308l-4.21-0.025L459.807,173.347
				 M458.733,171.179c-0.594,0-1.077,0.48-1.081,1.074l-0.062,10.47c-0.004,0.597,0.478,1.084,1.074,1.087l6.371,0.038
				c0.002,0,0.004,0,0.007,0c0.594,0,1.077-0.48,1.081-1.074l0.062-10.47c0.004-0.597-0.478-1.084-1.074-1.087l-6.371-0.038
				C458.737,171.179,458.735,171.179,458.733,171.179L458.733,171.179z"/>
		</g>
	</g>
	<g>
		<g>
			<path class="st25" d="M486.651,172.266h0.005H486.651 M486.645,173.347l4.21,0.025l-0.049,8.308l-4.21-0.025L486.645,173.347
				 M485.57,171.179c-0.594,0-1.077,0.48-1.081,1.074l-0.062,10.47c-0.004,0.597,0.477,1.084,1.074,1.087l6.371,0.038
				c0.002,0,0.004,0,0.007,0c0.594,0,1.077-0.48,1.081-1.074l0.062-10.47c0.004-0.597-0.478-1.084-1.074-1.087l-6.371-0.038
				C485.575,171.179,485.572,171.179,485.57,171.179L485.57,171.179z"/>
		</g>
	</g>
	<g>
		<g>
			<path class="st25" d="M500.053,175.729h0.005H500.053 M500.047,176.81l4.21,0.025l-0.029,4.845l-4.21-0.025L500.047,176.81
				 M498.972,174.642c-0.594,0-1.077,0.48-1.081,1.074l-0.041,7.007c-0.004,0.597,0.478,1.084,1.074,1.087l6.371,0.038
				c0.002,0,0.004,0,0.007,0c0.594,0,1.077-0.48,1.081-1.074l0.041-7.007c0.004-0.597-0.478-1.084-1.074-1.087l-6.371-0.038
				C498.977,174.642,498.974,174.642,498.972,174.642L498.972,174.642z"/>
		</g>
	</g>
	<g>
		<g>
			<path class="st25" d="M473.269,161.436h0.005H473.269 M473.263,162.517l4.21,0.025l-0.113,19.138l-4.21-0.025L473.263,162.517
				 M472.188,160.349c-0.594,0-1.077,0.48-1.081,1.074l-0.126,21.3c-0.004,0.597,0.478,1.084,1.074,1.087l6.371,0.038
				c0.002,0,0.004,0,0.007,0c0.594,0,1.077-0.48,1.081-1.074l0.126-21.3c0.004-0.597-0.478-1.084-1.074-1.087l-6.371-0.038
				C472.193,160.349,472.19,160.349,472.188,160.349L472.188,160.349z"/>
		</g>
	</g>
	<line class="st34" x1="482.558" y1="142.435" x2="489.444" y2="142.424"/>
	<line class="st34" x1="482.554" y1="145.916" x2="486.973" y2="145.909"/>
	<line class="st34" x1="496.139" y1="158.293" x2="505.456" y2="158.296"/>
	<line class="st34" x1="496.14" y1="161.774" x2="501.761" y2="161.774"/>
	<line class="st35" x1="463.626" y1="154.786" x2="472.075" y2="146.405"/>
	<line class="st35" x1="478.02" y1="146.585" x2="486.216" y2="156.304"/>
	<line class="st35" x1="490.809" y1="155.223" x2="498.736" y2="140.182"/>
	<g>
		<path class="st25" d="M501.595,129.193c2.74,0,4.97,2.229,4.97,4.97c0,2.74-2.229,4.97-4.97,4.97s-4.97-2.229-4.97-4.97
			C496.625,131.422,498.855,129.193,501.595,129.193 M501.595,127.031c-3.938,0-7.131,3.193-7.131,7.131
			c0,3.939,3.193,7.131,7.131,7.131c3.939,0,7.131-3.193,7.131-7.131C508.726,130.224,505.533,127.031,501.595,127.031
			L501.595,127.031z"/>
	</g>
	<g>
		<path class="st25" d="M461.766,154.657c1.242,0,2.252,1.01,2.252,2.252s-1.01,2.252-2.252,2.252s-2.252-1.01-2.252-2.252
			S460.524,154.657,461.766,154.657 M461.766,152.495c-2.438,0-4.414,1.976-4.414,4.414s1.976,4.414,4.414,4.414
			c2.438,0,4.414-1.976,4.414-4.414S464.203,152.495,461.766,152.495L461.766,152.495z"/>
	</g>
	<g>
		<path class="st25" d="M488.699,155.557c1.242,0,2.252,1.01,2.252,2.252s-1.01,2.252-2.252,2.252s-2.252-1.01-2.252-2.252
			S487.457,155.557,488.699,155.557 M488.699,153.396c-2.438,0-4.414,1.976-4.414,4.414c0,2.438,1.976,4.414,4.414,4.414
			s4.414-1.976,4.414-4.414C493.113,155.372,491.137,153.396,488.699,153.396L488.699,153.396z"/>
	</g>
	<g>
		<path class="st25" d="M475.311,142.407c1.242,0,2.252,1.01,2.252,2.252s-1.01,2.252-2.252,2.252s-2.252-1.01-2.252-2.252
			S474.069,142.407,475.311,142.407 M475.311,140.245c-2.438,0-4.414,1.976-4.414,4.414s1.976,4.414,4.414,4.414
			s4.414-1.976,4.414-4.414S477.749,140.245,475.311,140.245L475.311,140.245z"/>
	</g>
</g>
<g>
	<g>
		<path class="st25" d="M256.802,144.596c1.977,0,3.585,1.608,3.585,3.585s-1.608,3.585-3.585,3.585s-3.585-1.608-3.585-3.585
			S254.825,144.596,256.802,144.596 M256.802,142.596c-3.084,0-5.585,2.5-5.585,5.585c0,3.084,2.5,5.585,5.585,5.585
			c3.084,0,5.585-2.5,5.585-5.585C262.386,145.097,259.886,142.596,256.802,142.596L256.802,142.596z"/>
	</g>
	<g>
		<path class="st25" d="M272.874,131.192c1.977,0,3.585,1.608,3.585,3.585s-1.608,3.585-3.585,3.585s-3.585-1.608-3.585-3.585
			S270.898,131.192,272.874,131.192 M272.874,129.192c-3.084,0-5.585,2.5-5.585,5.585c0,3.084,2.5,5.585,5.585,5.585
			s5.585-2.5,5.585-5.585C278.459,131.693,275.959,129.192,272.874,129.192L272.874,129.192z"/>
	</g>
	<g>
		<path class="st25" d="M284.549,147.734c1.977,0,3.585,1.608,3.585,3.585s-1.608,3.585-3.585,3.585s-3.585-1.608-3.585-3.585
			S282.572,147.734,284.549,147.734 M284.549,145.734c-3.084,0-5.585,2.5-5.585,5.585c0,3.084,2.5,5.585,5.585,5.585
			s5.585-2.5,5.585-5.585C290.133,148.234,287.633,145.734,284.549,145.734L284.549,145.734z"/>
	</g>
	<g>
		<polyline class="st31" points="277.203,192.123 277.203,165.444 272.495,159.167 272.495,138.634 		"/>
		<line class="st31" x1="284.266" y1="192.123" x2="284.266" y2="156.812"/>
	</g>
	<g>
		<path class="st31" d="M299.088,192.645c0,0-5.402-8.262-7.313-12.192c-1.911-3.93-2.448-9.278-1.713-11.321
			c2.33-6.483,14.657-15.397,11.012-29.609c-2.484-9.684-7.793-16.186-23.42-18.191c-15.238-1.956-26.328,4.869-31.302,17.35
			c-1.663,4.173-0.86,8.264-0.86,8.264s0.737,1.611,1.113,3.493c0.376,1.882-5.587,8.986-5.783,9.603
			c-0.196,0.617-0.241,2.439,1.49,3.117c1.731,0.678,2.965,1.07,2.965,1.07s0.256,0.467,0.075,1.731
			c-0.181,1.264-0.919,2.664-0.227,3.086c0.693,0.422,1.671,1.099,1.671,1.099s-1.596,0.632-0.889,2.454
			c0.858,0.768,2.092,2.665,2.107,3.312c0.015,0.647-0.287,2.755-0.287,2.755s0.18,2.499,3.371,3.493
			c3.191,0.994,10.729-0.825,10.729-0.825l7.529-2.55v-10.986l-10.201-15.694"/>
	</g>
</g>
<g>
	<g>
		<polygon class="st36" points="573.507,233.726 573.377,229.512 577.086,231.507 580.797,233.502 577.216,235.721 573.636,237.94 
					"/>
	</g>
	<g>
		<polygon class="st36" points="604.03,269.81 607.745,271.803 604.164,274.019 600.582,276.237 600.448,272.027 600.315,267.817 		
			"/>
	</g>
	<g>
		<polygon class="st36" points="555.766,276.314 551.975,278.16 552.275,273.959 552.573,269.756 556.065,272.112 559.557,274.468 
					"/>
	</g>
	<path class="st37" d="M551.691,265.728c-1.157-5.824-0.42-12.067,2.522-17.75c4.663-9.008,13.671-14.303,23.132-14.649"/>
	<path class="st37" d="M597.788,279.367c-8.121,8.369-21.062,10.826-31.951,5.189c-5.666-2.933-9.863-7.585-12.283-12.987"/>
	<path class="st37" d="M583.789,233.867c2.381,0.492,4.736,1.314,7.001,2.487c13.31,6.891,18.514,23.267,11.623,36.578"/>
	<g>
		<g>
			<line class="st37" x1="575.601" y1="244.607" x2="581.099" y2="244.607"/>
		</g>
		<g>
			<path class="st36" d="M578.375,250.293c6.398,0,11.603,5.205,11.603,11.603c0,6.398-5.205,11.603-11.603,11.603
				s-11.603-5.205-11.603-11.603C566.772,255.498,571.977,250.293,578.375,250.293 M578.375,248.293
				c-7.513,0-13.603,6.09-13.603,13.603c0,7.513,6.09,13.603,13.603,13.603s13.603-6.09,13.603-13.603
				C591.978,254.383,585.887,248.293,578.375,248.293L578.375,248.293z"/>
		</g>
		<line class="st37" x1="578.375" y1="244.41" x2="578.375" y2="248.494"/>
		<g>
			<line class="st38" x1="578.29" y1="253.923" x2="578.29" y2="254.809"/>
			<line class="st38" x1="572.677" y1="256.318" x2="573.304" y2="256.945"/>
			<line class="st38" x1="570.402" y1="261.981" x2="571.288" y2="261.981"/>
			<line class="st38" x1="572.797" y1="267.594" x2="573.423" y2="266.967"/>
			<line class="st38" x1="578.459" y1="269.869" x2="578.459" y2="268.983"/>
			<line class="st38" x1="584.072" y1="267.474" x2="583.446" y2="266.848"/>
			<line class="st38" x1="586.348" y1="261.812" x2="585.462" y2="261.812"/>
			<line class="st38" x1="583.953" y1="256.199" x2="583.326" y2="256.825"/>
		</g>
	</g>
</g>
<g>
	<g>
		<g>
			<path class="st25" d="M718.745,325.566h0.005H718.745 M718.74,326.371l5.136,0.03l-0.039,6.678l-5.136-0.03L718.74,326.371
				 M717.94,324.366c-0.656,0-1.191,0.53-1.195,1.188l-0.049,8.288c-0.004,0.66,0.528,1.198,1.188,1.202l6.746,0.04
				c0.002,0,0.005,0,0.007,0c0.656,0,1.191-0.53,1.195-1.188l0.049-8.288c0.004-0.66-0.528-1.198-1.188-1.202l-6.746-0.04
				C717.945,324.366,717.942,324.366,717.94,324.366L717.94,324.366z"/>
		</g>
	</g>
	<g>
		<g>
			<path class="st25" d="M748.778,321.846h0.005H748.778 M748.773,322.651l5.136,0.03l-0.062,10.458l-5.136-0.03L748.773,322.651
				 M747.972,320.646c-0.656,0-1.191,0.53-1.195,1.188l-0.071,12.068c-0.004,0.66,0.528,1.198,1.188,1.202l6.746,0.04
				c0.002,0,0.005,0,0.007,0c0.656,0,1.191-0.53,1.195-1.188l0.071-12.068c0.004-0.66-0.528-1.198-1.188-1.202l-6.746-0.04
				C747.977,320.646,747.975,320.646,747.972,320.646L747.972,320.646z"/>
		</g>
	</g>
	<g>
		<g>
			<path class="st25" d="M762.304,309.294h0.005H762.304 M762.299,310.099l5.136,0.03l-0.136,23.037l-5.136-0.03L762.299,310.099
				 M761.499,308.095c-0.657,0-1.191,0.53-1.195,1.188l-0.146,24.648c-0.004,0.66,0.528,1.198,1.188,1.202l6.746,0.04
				c0.002,0,0.005,0,0.007,0c0.657,0,1.191-0.53,1.195-1.188l0.146-24.648c0.004-0.66-0.528-1.198-1.188-1.202l-6.746-0.04
				C761.503,308.095,761.501,308.095,761.499,308.095L761.499,308.095z"/>
		</g>
	</g>
	<g>
		<g>
			<path class="st25" d="M733.859,317.496h0.005H733.859 M733.854,318.301l5.136,0.03l-0.087,14.778l-5.136-0.03L733.854,318.301
				 M733.054,316.297c-0.657,0-1.191,0.53-1.195,1.188l-0.097,16.388c-0.004,0.66,0.528,1.198,1.188,1.202l6.746,0.04
				c0.002,0,0.005,0,0.007,0c0.656,0,1.191-0.53,1.195-1.188l0.097-16.388c0.004-0.66-0.528-1.198-1.188-1.202l-6.746-0.04
				C733.058,316.297,733.056,316.297,733.054,316.297L733.054,316.297z"/>
		</g>
	</g>
	<line class="st31" x1="723.892" y1="312.794" x2="733.72" y2="304.533"/>
	<line class="st31" x1="739.335" y1="304.933" x2="747.441" y2="310.205"/>
	<line class="st31" x1="753.454" y1="308.114" x2="762.182" y2="297.737"/>
	<g>
		<path class="st25" d="M721.252,312.271c1.611,0,2.921,1.31,2.921,2.921s-1.31,2.921-2.921,2.921c-1.611,0-2.921-1.31-2.921-2.921
			S719.641,312.271,721.252,312.271 M721.252,310.271c-2.718,0-4.921,2.203-4.921,4.921s2.203,4.921,4.921,4.921
			s4.921-2.203,4.921-4.921S723.97,310.271,721.252,310.271L721.252,310.271z"/>
	</g>
	<g>
		<path class="st25" d="M751.282,308.474c1.611,0,2.921,1.31,2.921,2.921s-1.31,2.921-2.921,2.921c-1.611,0-2.921-1.31-2.921-2.921
			S749.671,308.474,751.282,308.474 M751.282,306.474c-2.718,0-4.921,2.203-4.921,4.921s2.203,4.921,4.921,4.921
			s4.921-2.203,4.921-4.921S754,306.474,751.282,306.474L751.282,306.474z"/>
	</g>
	<g>
		<path class="st25" d="M764.776,291.976c1.611,0,2.921,1.31,2.921,2.921c0,1.611-1.31,2.921-2.921,2.921s-2.921-1.31-2.921-2.921
			C761.854,293.287,763.165,291.976,764.776,291.976 M764.776,289.976c-2.718,0-4.921,2.203-4.921,4.921
			c0,2.718,2.203,4.921,4.921,4.921s4.921-2.203,4.921-4.921C769.697,292.18,767.493,289.976,764.776,289.976L764.776,289.976z"/>
	</g>
	<g>
		<path class="st25" d="M736.355,299.737c1.611,0,2.921,1.31,2.921,2.921c0,1.611-1.31,2.921-2.921,2.921
			c-1.611,0-2.921-1.31-2.921-2.921C733.433,301.048,734.744,299.737,736.355,299.737 M736.355,297.737
			c-2.718,0-4.921,2.203-4.921,4.921s2.203,4.921,4.921,4.921c2.718,0,4.921-2.203,4.921-4.921S739.073,297.737,736.355,297.737
			L736.355,297.737z"/>
	</g>
	<g>
		<path class="st25" d="M773.173,277.023c0.215,0,0.389,0.175,0.389,0.389v60.319c0,0.215-0.175,0.389-0.389,0.389h-60.319
			c-0.215,0-0.39-0.175-0.39-0.389v-60.319c0-0.215,0.175-0.389,0.39-0.389H773.173 M773.173,275.023h-60.319
			c-1.32,0-2.39,1.07-2.39,2.389v60.319c0,1.32,1.07,2.389,2.39,2.389h60.319c1.32,0,2.389-1.07,2.389-2.389v-60.319
			C775.563,276.093,774.493,275.023,773.173,275.023L773.173,275.023z"/>
	</g>
	<g>
		<line class="st39" x1="712.02" y1="285.835" x2="774.445" y2="285.835"/>
	</g>
	<line class="st39" x1="716.608" y1="280.957" x2="718.516" y2="280.957"/>
	<line class="st39" x1="722.758" y1="280.957" x2="724.666" y2="280.957"/>
	<line class="st39" x1="728.909" y1="280.957" x2="730.816" y2="280.957"/>
</g>
<g>
	<g>
		<line class="st39" x1="75.009" y1="307.697" x2="82.075" y2="307.686"/>
		<line class="st39" x1="75.005" y1="311.269" x2="79.54" y2="311.262"/>
		<line class="st39" x1="88.946" y1="323.97" x2="98.507" y2="323.974"/>
		<line class="st39" x1="88.947" y1="327.542" x2="94.716" y2="327.542"/>
		<line class="st31" x1="68.554" y1="311.956" x2="76.962" y2="320.924"/>
		<line class="st31" x1="64.373" y1="311.956" x2="55.965" y2="320.924"/>
		<line class="st31" x1="81.571" y1="320.474" x2="89.889" y2="307.66"/>
		<g>
			<path class="st25" d="M53.672,321.144c1.395,0,2.53,1.135,2.53,2.53s-1.135,2.53-2.53,2.53s-2.53-1.135-2.53-2.53
				S52.278,321.144,53.672,321.144 M53.672,319.144c-2.502,0-4.53,2.028-4.53,4.53s2.028,4.53,4.53,4.53s4.53-2.028,4.53-4.53
				S56.174,319.144,53.672,319.144L53.672,319.144z"/>
		</g>
		<g>
			<path class="st25" d="M79.75,321.144c1.395,0,2.53,1.135,2.53,2.53s-1.135,2.53-2.53,2.53s-2.53-1.135-2.53-2.53
				S78.355,321.144,79.75,321.144 M79.75,319.144c-2.502,0-4.53,2.028-4.53,4.53s2.028,4.53,4.53,4.53s4.53-2.028,4.53-4.53
				S82.251,319.144,79.75,319.144L79.75,319.144z"/>
		</g>
		<g>
			<path class="st25" d="M66.711,307.45c1.395,0,2.53,1.135,2.53,2.53s-1.135,2.53-2.53,2.53c-1.395,0-2.53-1.135-2.53-2.53
				S65.316,307.45,66.711,307.45 M66.711,305.45c-2.502,0-4.53,2.028-4.53,4.53s2.028,4.53,4.53,4.53c2.502,0,4.53-2.028,4.53-4.53
				S69.213,305.45,66.711,305.45L66.711,305.45z"/>
		</g>
		<g>
			<path class="st25" d="M95.301,294.571l-0.002,0.108c-0.012,0.726,0.371,1.402,1,1.765c0.31,0.179,0.655,0.268,1,0.268
				c0.356,0,0.712-0.095,1.029-0.285l0.093-0.056l-0.056,0.093c-0.374,0.623-0.38,1.399-0.017,2.029c0.358,0.619,1.018,1,1.732,1
				c0.011,0,0.022,0,0.033,0l0.108-0.002l-0.095,0.053c-0.635,0.353-1.029,1.022-1.029,1.748c0,0.726,0.394,1.396,1.029,1.748
				l0.094,0.052l-0.108-0.002c-0.011,0-0.022,0-0.033,0c-0.714,0-1.374,0.381-1.732,1c-0.363,0.629-0.357,1.406,0.017,2.029
				l0.055,0.093l-0.093-0.056c-0.316-0.19-0.672-0.285-1.029-0.285c-0.345,0-0.69,0.089-1,0.268c-0.629,0.363-1.012,1.039-1,1.765
				l0.002,0.108l-0.053-0.095c-0.353-0.635-1.022-1.029-1.748-1.029c-0.726,0-1.396,0.394-1.748,1.029l-0.052,0.094l0.002-0.108
				c0.012-0.726-0.371-1.402-1-1.765c-0.31-0.179-0.655-0.268-1-0.268c-0.356,0-0.712,0.095-1.029,0.285l-0.093,0.056l0.056-0.093
				c0.374-0.623,0.38-1.399,0.017-2.029c-0.358-0.619-1.018-1-1.732-1c-0.011,0-0.022,0-0.033,0l-0.108,0.002l0.094-0.052
				c0.635-0.353,1.029-1.022,1.029-1.748c0-0.726-0.394-1.396-1.029-1.748l-0.095-0.053l0.108,0.002c0.011,0,0.022,0,0.033,0
				c0.714,0,1.374-0.381,1.732-1c0.363-0.629,0.357-1.406-0.017-2.029l-0.056-0.093l0.093,0.056c0.316,0.19,0.672,0.285,1.029,0.285
				c0.345,0,0.69-0.089,1-0.268c0.629-0.363,1.012-1.039,1-1.765l-0.002-0.108l0.052,0.095c0.353,0.635,1.022,1.029,1.748,1.029
				c0.726,0,1.396-0.394,1.748-1.029L95.301,294.571 M93.5,306.336c2.781,0,5.044-2.263,5.044-5.044
				c0-2.781-2.263-5.044-5.044-5.044c-2.781,0-5.044,2.263-5.044,5.044C88.456,304.073,90.719,306.336,93.5,306.336 M94.625,291.67
				l-1.125,2.025l-1.125-2.025c-0.953,0.11-1.864,0.358-2.712,0.724l0.038,2.319l-1.989-1.192c-0.754,0.562-1.423,1.231-1.985,1.985
				l1.192,1.989l-2.319-0.038c-0.366,0.848-0.614,1.759-0.724,2.712l2.025,1.125l-2.025,1.125c0.11,0.953,0.358,1.864,0.724,2.712
				l2.319-0.038l-1.192,1.988c0.562,0.754,1.231,1.423,1.985,1.985l1.989-1.192l-0.038,2.319c0.848,0.366,1.759,0.614,2.712,0.724
				l1.125-2.025l1.125,2.025c0.953-0.11,1.864-0.358,2.712-0.724l-0.038-2.319l1.989,1.192c0.754-0.562,1.423-1.231,1.985-1.985
				l-1.192-1.988l2.319,0.038c0.366-0.848,0.614-1.759,0.724-2.712l-2.025-1.125l2.025-1.125c-0.11-0.953-0.358-1.864-0.724-2.712
				l-2.319,0.038l1.192-1.989c-0.562-0.754-1.231-1.423-1.985-1.985l-1.989,1.192l0.038-2.319
				C96.489,292.027,95.578,291.78,94.625,291.67L94.625,291.67z M93.5,304.336c-1.681,0-3.044-1.363-3.044-3.044
				c0-1.681,1.363-3.044,3.044-3.044c1.681,0,3.044,1.363,3.044,3.044C96.543,302.973,95.181,304.336,93.5,304.336L93.5,304.336z"/>
		</g>
	</g>
	<g>
		<g>
			<path class="st25" d="M106.444,277.023c0.215,0,0.389,0.175,0.389,0.389v59.737c0,0.215-0.175,0.389-0.389,0.389H46.707
				c-0.215,0-0.389-0.175-0.389-0.389v-59.737c0-0.215,0.175-0.389,0.389-0.389H106.444 M106.444,275.023H46.707
				c-1.32,0-2.389,1.07-2.389,2.389v59.737c0,1.32,1.07,2.389,2.389,2.389h59.737c1.32,0,2.389-1.07,2.389-2.389v-59.737
				C108.833,276.093,107.764,275.023,106.444,275.023L106.444,275.023z"/>
		</g>
		<g>
			<line class="st39" x1="45.56" y1="286.099" x2="106.79" y2="286.099"/>
		</g>
		<line class="st39" x1="50.148" y1="281.22" x2="52.056" y2="281.22"/>
		<line class="st39" x1="56.298" y1="281.22" x2="58.206" y2="281.22"/>
		<line class="st39" x1="62.448" y1="281.22" x2="64.356" y2="281.22"/>
	</g>
</g>
<g>
	<circle class="st40" cx="103.866" cy="331.362" r="17.456"/>
	<g>
		<path class="st25" d="M111.615,323.641c0.285,0,0.572,0.084,0.823,0.259c0.653,0.455,0.814,1.354,0.359,2.007l-9.489,13.617
			c-0.241,0.345-0.621,0.569-1.04,0.61c-0.048,0.005-0.096,0.008-0.143,0.008c-0.369,0-0.727-0.142-0.997-0.4l-7.266-6.947
			c-0.576-0.55-0.596-1.463-0.046-2.038c0.284-0.297,0.663-0.446,1.043-0.446c0.358,0,0.717,0.133,0.996,0.4l6.049,5.783
			l8.527-12.235C110.711,323.857,111.16,323.641,111.615,323.641 M111.616,321.641L111.616,321.641
			c-1.126,0-2.183,0.552-2.826,1.475l-7.191,10.318l-4.361-4.17c-0.642-0.615-1.487-0.954-2.378-0.954
			c-0.935,0-1.842,0.388-2.488,1.064c-0.635,0.664-0.974,1.536-0.953,2.456c0.021,0.919,0.398,1.775,1.063,2.41l7.266,6.947
			c0.642,0.615,1.487,0.954,2.379,0.954c0.112,0,0.225-0.006,0.339-0.017c1.003-0.099,1.909-0.63,2.485-1.457l9.489-13.617
			c0.526-0.754,0.726-1.668,0.564-2.573c-0.162-0.905-0.666-1.693-1.421-2.218C113.003,321.855,112.322,321.641,111.616,321.641
			L111.616,321.641z"/>
	</g>
</g>
</svg>
